<?xml version="1.0" encoding="UTF-8"?><svg xmlns="http://www.w3.org/2000/svg" xmlns:xlink="http://www.w3.org/1999/xlink" height="61.1" preserveAspectRatio="xMidYMid meet" version="1.0" viewBox="-0.8 -0.0 308.6 61.1" width="308.6" zoomAndPan="magnify"><linearGradient gradientUnits="userSpaceOnUse" id="a" x1="0" x2="307.372" xlink:actuate="onLoad" xlink:show="other" xlink:type="simple" xmlns:xlink="http://www.w3.org/1999/xlink" y1="30.552" y2="30.552"><stop offset="0" stop-color="#f1eab9"/><stop offset="1" stop-color="#ff8c8c"/></linearGradient><path d="M196.55,0.43c0.31,0.41-0.46,0.42-0.3,0.77c1.41-0.14,2.2,0.04,2.12,0.64 c0.87-0.02,1.07-0.29,1.36-0.53c-0.72-0.15-1.77-0.14-1.77-0.66c0.48-0.03,0.77,0.03,1.05,0.09c-0.12-0.44,1.36-0.63-0.04-0.75 C198.08,0.32,197.51,0.91,196.55,0.43z M204.94,1.48c0.34-0.02,0.69-0.04,1.04-0.06c-0.06,0.41,0.64,0.8,0.08,1.8 C205.24,2.84,205.19,2.41,204.94,1.48z M167.69,4.92c0.66,0.26,2.81-0.3,3.47-0.01c-1.58,0.69-2.4,0.02-3.76,0.64 C167.33,5.29,167.79,5.2,167.69,4.92z M215.71,2.24c-0.53,0.28-1.21,0.96-2.05,0.67C213.81,2.47,214.96,2.43,215.71,2.24z M180.57,5.41c-1.15,0.08-3.67,0.15-4.84,0.21C177.1,4.99,180.46,4.73,180.57,5.41z M194.67,3.84c0.85-0.07,1.66-0.11,2.08,0.04 C196.75,4.11,194.21,4.35,194.67,3.84z M183.64,4.72c0.76,0.73-2.68,1.05-2.4,0.33C181.66,4.81,182.72,4.79,183.64,4.72z M231.64,2.68c0.6-0.36,2.3,0.06,2.08,0.58C232.96,3.09,232.57,2.76,231.64,2.68z M197.82,4.43c0.65-0.02,0.26,0.48,1.06,0.39 c-1.77,0.28-2.68,0.59-4.46,0.54C195.44,5.01,196.68,4.74,197.82,4.43z M140.71,9.57c0.3,0.57-1.25,0.58-2.34,0.73 C139.21,9.77,139.5,9.82,140.71,9.57z M125.4,12.27c-0.23,0.37-2.12,0.27-1.63,0.84c-1.08,0.18-1.2-0.24-2.43,0.04 C122.17,12.51,123.94,11.99,125.4,12.27z M163.79,7.87c0.02,0.25,0.05,0.5,0.07,0.75c-0.76,0.33-1.88,0.55-3.4,0.63 C161.24,8.73,162.15,8.39,163.79,7.87z M175.83,6.82c0.55-0.08,0.61,0.1,1.04,0.07c0.28,0.39-0.66,0.35-0.64,0.65 C175.41,7.38,175.68,7.22,175.83,6.82z M181.34,6.4c0.93-0.07,1.66,0.51,2.06-0.16c1.03,0.14-0.41,0.62,0.08,1.05 c-0.4,0-0.31-0.25-0.38-0.42c-0.85,0.08-1.65,0.15-2.08,0.01C181.2,6.75,181.36,6.61,181.34,6.4z M171.71,7.28 c0.02,0.2,0.03,0.4,0.05,0.6c-0.73-0.21-0.66,0.16-1.39-0.04C170.65,7.6,170.85,7.33,171.71,7.28z M167.61,7.95 c0.46-0.04,0.91-0.09,1.37-0.13c0.14,0.38-0.68,0.46-1.33,0.58L167.61,7.95z M192.38,6.07c1.08-0.13,0.93,0.35,1.75,0.36 C193.78,6.79,191.97,6.6,192.38,6.07z M75.7,22.41c-1.13,0.11-2.21,0.16-3.44,0.34C73.13,21.99,74.76,22.11,75.7,22.41z M191.75,7.01c0.31,0.1,0.78,0.12,1.38,0.08c0.47,0.87,0.75,0.9,0.11,1.8c-1.37,0.18-0.88-0.59-2.1-0.49 C191.33,7.83,192.62,7.58,191.75,7.01z M127.02,14.02c1.13-0.26,1.28,0.07,1.44,0.4C127.93,14.32,126.93,14.51,127.02,14.02z M133.87,13.27c0.79-0.56,2.1-0.07,3.42-0.41c-0.06,0.32-1.51,0.22-1.31,0.61C135.5,13.27,134.8,13.2,133.87,13.27z M36.45,31.5 c-0.87-0.19-2.45,0.81-2.42,0.25C34.44,31.47,36.31,31.08,36.45,31.5z M182.53,8.57c0.25,0.1,1.94,0.19,2.06-0.16 c0.74-0.08,0.19,0.52,0.39,0.72c-0.98-0.08-1.44-0.05-2.4,0.18C182.57,9.07,182.55,8.82,182.53,8.57z M189.07,8.38 c1.56,0.37-1.62,0.74-2.04,0.46C187.43,8.2,188.79,8.74,189.07,8.38z M267.16,7.04c0.88-0.19,2.06-0.04,2.43,0.1 C269.97,7.28,269.53,7.32,267.16,7.04z M34.43,33.37c0.15-0.26,1.28-0.32,1.27-0.61c0.74-0.15,0.81,0.2,0.85,0.58 c-0.94-0.02-1.08,0.08-0.6,0.45c-0.45,0.11-0.9,0.2-1.34,0.31c0.14-1.01-3.57-0.27-4.25-0.01C30.65,33.49,34.59,32.51,34.43,33.37z M294.64,8.48c-0.8,0.38-2.01-0.32-3.44-0.19C290.55,7.97,294.12,8.3,294.64,8.48z M157.97,12.06c0.43-0.48,1.7-0.12,2.07-0.05 C159.78,12.39,158.53,12.03,157.97,12.06z M150.1,12.84c0.82-0.16,0.77,0.19,1.73-0.03c-0.39,0.58-1.12,0.15-2.02,0.52 C149.98,13.19,150.14,13.05,150.1,12.84z M62.57,26.92c-0.57,0.35-1.54,0.61-2.63,0.85C59.92,27.3,61.57,27.17,62.57,26.92z M65.35,26.8c-0.51,0.58-1.01,0.29-2.32,0.63C63.27,26.81,64.46,26.69,65.35,26.8z M69.02,25.88c0.26-0.49,1.44-0.26,2.02-0.42 c0.08,0.23-0.05,0.6,0.45,0.52C70.66,26.62,70.59,25.29,69.02,25.88z M59.09,28.72c0.13,0.7,3-0.55,3.18,0.11 c-2.82,0.46-3.6,0.52-5.47,0.68C57.24,29.17,58.04,28.92,59.09,28.72z M73.07,26.88c-1.1,0.82-0.99-0.63-2.47-0.1 c-1.07-0.02,1.43-0.43,1.99-0.57C72.11,26.82,72.07,26.7,73.07,26.88z M296.94,10.56c0.53,0.24,0.85,0.56,0.98,0.96 c-0.59,0.03-0.64-0.15-0.67-0.34c-0.48-0.04-0.97-0.08-1.03,0.09C294.99,10.89,297.42,11.08,296.94,10.56z M28.5,36.57 c0.59-0.17,0.75,0,1.37-0.19C30.22,36.98,28.2,37.34,28.5,36.57z M11.97,41.17c0.48,0.08,1.47-0.25,2.36-0.49 c-0.11,0.52-0.83,0.43-1.62,0.6c-0.31,0.19-0.25,0.43-0.91,0.56C11.57,41.57,11.92,41.39,11.97,41.17z M82.57,25.42 c0.74,0.18,2.06-0.24,1.97-0.67c1.2,0.07-0.48,0.63-0.17,0.95C83.84,25.56,82.59,25.91,82.57,25.42z M12.36,42.62 c0.65-0.11,0.71,0.25,1.73-0.17c0.11,0.25-0.32,0.42-0.17,0.67c-1.34,0.29-1.02,0.2-2.31,0.64c0.04-0.39-0.69-0.15-0.52-0.64 C11.35,43.16,12.79,43.04,12.36,42.62z M300.56,13.32c1.03,0.3-1.05,0.72-1.39,0.38C299.05,13.27,300.46,13.62,300.56,13.32z M295.77,13.21c0.85,0.44-0.46,1.1-1.09,1.29C293.2,13.99,295.43,13.71,295.77,13.21z M303.95,14.1c1.11,0.29-0.73,0.33-0.39,0.73 c-0.19-0.27-1.62-0.08-1.69-0.39C301.43,13.76,303.92,14.55,303.95,14.1z M298.29,17.26c-0.64-0.1-1.46-0.13-1.34-0.52 C297.92,16.64,298.42,16.64,298.29,17.26z M292.85,16.97c0.3,0.13,0.76,0.2,1.35,0.22c-0.01,0.2-0.02,0.4-0.03,0.6 C293.77,17.17,292.68,17.66,292.85,16.97z M306.43,18.15c0.68,0.15,1.36,0.53,0.63,0.79C306.32,18.88,306.35,18.52,306.43,18.15z M11.6,48.91c0.05,0.33-1.38,0.44-1.92,0.69C9.56,49.2,11.12,48.83,11.6,48.91z M295.17,18.3c0.64,0.1,0.84,0.37,1.68,0.39 c-0.94,0.31,0.23,0.81-1.4,0.83C295.71,18.97,294.9,18.84,295.17,18.3z M5.12,51.01c0.98-0.39,0.53,0.39,1.72-0.16 c-0.22,0.29-0.74,0.54-1.56,0.74C4.84,51.49,4.8,51.33,5.12,51.01z M299.56,18.98c0.59,0.17,1.16,0.34,0.98,0.81 C299.58,19.76,299.58,19.37,299.56,18.98z M12.32,50.27c1.33-0.44-0.21,0.48,1.1,0.16c-0.09,0.12-2.94,1-3.02,0.52 C11.31,50.48,12.53,50.92,12.32,50.27z M39.76,43.85c0.04,0.15,0.07,0.29,0.11,0.44c-0.33,0.08-0.66,0.15-0.99,0.23 c0.42-0.32,0.14-0.52-0.77-0.29C38.39,43.55,38.8,44.11,39.76,43.85z M34.85,45.19c-0.26,0.41-1.56,0.2-2.63,0.67 C32.56,45.32,34.27,45,34.85,45.19z M2.22,54.47c-0.13,0.59-1.79,0.09-1.92,0.69C-0.82,54.84,1.5,54.4,2.22,54.47z M42.65,44.26 c0.47,0.11,1.58-0.27,2.05-0.16C44.61,44.67,42.63,44.78,42.65,44.26z M291.27,21.54c1.27,0.26,1.83-0.12,2.01,0.56 c-1.54-0.19-1.38-0.25-1.04,0.4C291.43,22.37,291.51,21.9,291.27,21.54z M9.4,53.73c1.24-0.56,2.78,0.18,2.98-0.67 c0.45-0.08,0.36,0.29,0.48,0.49C11.31,53.55,10.16,54.17,9.4,53.73z M296.29,22.87c-1.61,0.23-0.38,1.21-0.8,2.22 c-0.33-0.32-1.65-1.03-0.61-1.39c-0.46-0.7-1.61-0.25-2.33-0.73C293.77,22.95,295.5,22.62,296.29,22.87z M296.62,23.04 c1.14,0.01,0.53,0.68,0.96,0.95C296.54,23.95,296.6,23.49,296.62,23.04z M42.47,46.46c0.65,0.11,0.04,0.6-0.85,0.81 C41.44,46.92,41.59,46.62,42.47,46.46z M32.83,49.74c0.7-0.21,1.07-0.14,1.09,0.19c-0.65,0.26-2.33,0.34-1.89,0.79 C30.24,50.63,32.93,50.14,32.83,49.74z M8.9,56.99c1.02,0.26,2.39-0.88,2.48,0.09C10.88,56.78,8.93,57.68,8.9,56.99z M33.88,51.18 c0.55-0.53,2.22-0.48,2.98-0.6C36.2,51.19,35.03,50.75,33.88,51.18z M20.27,55.09c0.81-0.18,0.23,0.47,0.15,0.58 c-0.31-0.02-0.63-0.02-0.65,0.18c-0.36,0.06-0.3-0.23-0.73-0.11C18.71,55.41,20.61,55.42,20.27,55.09z M22.67,54.95 c1.69-0.17,3.83-0.69,5.66-0.97c0.22,0.32-1.51,0.3-0.87,0.68C25.72,54.5,23.54,55.61,22.67,54.95z M60.71,46.03 c-0.19,0.31-0.59,0.15-0.98,0.2c0.06,0.41,0.61,0.18,0.13,0.59c0.39-0.05,0.58-0.16,0.62-0.28c1.26-0.02-0.72,0.38-0.2,0.66 c-0.84,0.02-1.57,0.13-2.31,0.22c-0.74,0.11-1.5,0.21-2.42,0.2c0.57-0.7,1.86-0.39,2.99-0.52c0.97-0.3-0.38-0.25-0.13-0.59 C59.44,46.35,59.91,45.84,60.71,46.03z M36.5,51.91c0.35-0.54,1.62-0.37,1.99-0.35c-0.02,0.23-0.96,0.3-0.91,0.54 C36.28,52.38,37.82,51.5,36.5,51.91z M297.39,27.6c0.23,0.48-0.94,0.24-0.71,0.71C295.54,28.18,295.94,27.29,297.39,27.6z M156.35,32.91c0.5,0.49,0.04,0.55,0.44,1.01c-1.07-0.11-0.86-1.13-2.42-0.52C154,32.89,155.67,33.06,156.35,32.91z M54.99,49.75 c0.06-0.36,1.71-0.52,1.96-0.45c-0.02,0.32-1.19,0.42-1.21,0.74C55.26,50.12,55.53,49.63,54.99,49.75z M57.93,49.07 c1.29,0.05,1.64-0.2,3.02-0.33c0.06,0.29,0.13,0.59,0.19,0.88C60.3,49.28,58.72,49.45,57.93,49.07z M291.91,29.41 c1.15-0.05,0.4,0.63,1.65,0.54C293.08,30.57,291.79,29.88,291.91,29.41z M63.88,47.98c1.41-0.08,0.64,0.36,0.91,1.04 c-1.05,0.31-1.55,0.22-2.33,0.33c-0.12-0.31,1.15-0.31,1.61-0.49c-0.81-0.06,0.55-0.6-0.75-0.3C63.39,48.34,63.85,48.21,63.88,47.98 z M37.39,54.16c0.77-0.26,0.77,0.09,1.66-0.27c-0.01,0.18,0.14,0.24,0.4,0.21c0.09,0.53-1.15-0.04-0.94,0.4 C38.21,54.33,37.42,54.54,37.39,54.16z M49.52,51.47c0.91-0.3,3.05-0.74,4.25-0.98c0.02,0.14-0.38,0.21-0.62,0.3 c0.11,0.26,0.33,0.44,0.79,0.44c0.02,0.33-0.75,0.5-1.57,0.67C54.1,50.71,50.85,51.37,49.52,51.47z M122.2,38.53 c-0.19,0.23-0.67,0.38-1.29,0.49c-0.19-0.09-0.38-0.19-0.39-0.4C121.16,38.19,121.59,38.48,122.2,38.53z M151.47,34.63 c0.49-0.04,1.14,0.11,1.68,0.15c0.54,0.06,0.96,0.01,0.99-0.45c0.79-0.03,0.68,0.46,1.72,0.28c-2.54,0.83-3.83,0.25-4.96,0.99 C150.58,35.12,151.2,34.93,151.47,34.63z M38.58,54.79c0.84-0.26,0.91,0.09,1.12,0.34C38.38,55.69,38.51,55.46,38.58,54.79z M57.34,51.06c-0.74-0.06-1.8,0.31-1.96,0.45C53.81,51.55,57.74,50.36,57.34,51.06z M146.54,35.82c0.57,0.09,0.44,0.59,0.77,0.82 c-0.99-0.02-1.04-0.01-2,0.24C145.06,36.01,146.16,36.31,146.54,35.82z M50.77,52.42c0.27-0.04,0.36,0.07,0.68,0l0.07,0.29 c-0.97,0.33-1.22,0.12-1.99,0.3C49.21,52.67,51.09,52.76,50.77,52.42z M53.84,52.33c-0.55,0.13-1.09,0.25-1.63,0.38 C51.92,52.13,54.01,51.4,53.84,52.33z M150.23,35.68c1.53,0.28,0.47,1.12,1.53,1.63c-1.85,0.38-0.77-1.16-2.41-0.47 C149.48,36.41,150.09,36.12,150.23,35.68z M47.6,53.61c-0.07,0.22-0.52,0.36-0.55,0.59C45.67,54.42,46.69,53.33,47.6,53.61z M39.12,55.59c1.06-0.43,0.62,0.33,0.83,0.57C38.79,56.39,39.01,55.98,39.12,55.59z M53.94,52.77c0.02,0.15-0.37,0.21-0.62,0.3 c0.38,0.41,0.35,0.24-0.19,0.66c-0.75-0.06,0.15-0.41-0.49-0.66C53.53,52.88,53.24,52.67,53.94,52.77z M45.96,55.38 c0.59,0.01,0.93,0.21,0.86,0.73c-0.4,0.25-1.18,0.42-1.2,0.74c-0.48,0.08-0.22-0.41-0.75-0.29c0.45-0.28,0.7-0.61,1.52-0.81 c-0.35-0.08-0.71-0.15-1.08-0.21c0.46-0.45,1.77-0.38,0.84-0.81c1.15-0.41,0.43,0.59,1.44,0.28C47.41,55.5,46.51,55.16,45.96,55.38z M94.07,45.15c0.91-0.08,1.36,0.17,1.47,0.65C95.09,45.55,94.23,45.59,94.07,45.15z M157.37,36.28c0.34-0.03,0.67-0.07,1-0.1 c-0.04,0.18,0.1,0.26,0.36,0.27c-0.2,0.17-0.75,0.23-0.62,0.51c-0.27-0.05-0.56-0.1-1.02-0.05 C157.03,36.65,157.48,36.56,157.37,36.28z M162.04,35.82c1.58-0.27,0.04,1.24,1.13,1.25c-0.84,0.47-1.5-0.5-2.41-0.52 c0.08-0.21,0.82-0.21,1.32-0.28C162.07,36.12,162.05,35.97,162.04,35.82z M178.38,34.51c-0.55,0.19-0.82,0.48-0.59,0.95 c-0.71-0.08-1.05-0.37-1.08-0.82C177.14,34.41,177.93,34.35,178.38,34.51z M55.71,52.98c-0.6,0.52-0.4,0.42-0.13,0.96 c-0.35-0.02-0.41-0.26-1.04-0.07C54.87,53.56,54.67,53.15,55.71,52.98z M135.8,39.07c0.28,0.05,0.56,0.09,1.02,0.03 C137.39,40.94,136.25,40.15,135.8,39.07z M141.15,38.73c1.18-0.02,1.42,0.53,2.43,0.62c0.18,0.34-0.57,0.4-0.24,0.79 C141.8,39.88,140.22,40.3,141.15,38.73z M106.74,43.79c0.88,0.15-0.22,0.57,0.48,0.84C105.64,44.92,106.54,44.17,106.74,43.79z M53.3,54.46c0.43-0.1,0.87-0.2,1.3-0.3c0.04,0.19,0.09,0.39,0.13,0.59C53.99,54.85,53.51,54.75,53.3,54.46z M66.1,51.97 c0.2,0.33-1.51,0.23-0.89,0.64c-0.29-0.18-1.59,0.37-1.4-0.17C64.73,52.71,65.32,51.74,66.1,51.97z M160.16,37.22 c1.35-0.18-0.04,0.21,0.39,0.57c-1.06,0.03-1.15,0.39-2.31,0.38C157.99,37.33,160.17,38.07,160.16,37.22z M146.24,39.03 c1.3-0.23,0.72,0.97-0.23,0.94C145.07,39.69,146.36,39.47,146.24,39.03z M153.21,38.2c0.85-0.08,0.71,0.43,0.76,0.82 c-1.12,0.23-0.61-0.49-1.39-0.45C152.64,38.41,153.22,38.4,153.21,38.2z M134.66,40.72c0.65-0.48,2.14-0.12,2.07,0.36 C135.29,41.41,135.87,40.52,134.66,40.72z M96.81,47.24c1.12-0.15,2.05-0.15,2.1,0.42C98.17,47.55,97.24,47.55,96.81,47.24z M54.96,55.77c0.51-0.16,0.59,0.01,1.01-0.08c-0.16,0.34-0.78,0.59-1.53,0.81C54.38,56.22,55.29,56.12,54.96,55.77z M138.09,41.22 c1.63,0.46,3.93,0.51,4.56,1.58c-1.05,0.06-1.46,0.31-1.25,0.75c-0.55,0.07-1.1,0.13-1.65,0.2c-0.36-0.45,1.05-0.34,1.27-0.61 c-0.4-0.13-0.44-0.48-0.44-0.85c-0.26-0.11-0.63-0.16-1.03-0.18c-1.06,0.05-0.03,0.75-1.25,0.75c-1.03-0.08,0.85-1.02-0.78-0.82 C137.22,41.61,138.4,41.65,138.09,41.22z M65.42,53.65c1.19-0.41,1.12,0.09,1.73,0.1C66.8,54.21,65.03,54.28,65.42,53.65z M158.01,39.09c0.44-0.04,0.88-0.09,1.32-0.13l0.06,0.6C158.95,39.39,157.64,39.72,158.01,39.09z M175.27,37.46 c0.39,0,0.3,0.25,0.37,0.42c-0.56,0.04-1.11,0.08-1.66,0.13C173.4,37.46,175.42,37.85,175.27,37.46z M68.1,53.4 c0.65-0.13,0.5,0.31,1.37,0.02c0.02,0.43-0.44,0.74-1.51,0.93C68.29,53.88,68.58,53.76,68.1,53.4z M146.43,40.68 c0.24,0.23,1.03,0.13,1.38,0.29c0.1,0.43-1.29,0.61-1.62,0.5C145.86,41.07,146.6,41.02,146.43,40.68z M156.74,39.81 c-0.45,0.38-1.03,0.71-1.91,0.94C154.85,40.24,155.74,40.01,156.74,39.81z M51.94,57.55c0-0.36,1.41-0.41,1.62-0.37 c-0.15,0.16-0.28,0.32-0.23,0.51C52.67,57.8,52.61,57.44,51.94,57.55z M151.88,41.39c-0.35-0.27-1.72,0.08-1.73-0.4 C151,40.5,152.03,40.8,151.88,41.39z M110.86,46.31c1.12,0.04-0.62,0.47-0.21,0.8C109.31,47.16,110.34,46.56,110.86,46.31z M152.52,41.16c1.29-0.15,2.42-0.16,2.71,0.31c-0.77,0.45-1.45,0.03-2.65,0.29L152.52,41.16z M63.81,55.67 c0.27-0.03,0.36,0.08,0.68,0.01c0.02,0.1,0.04,0.2,0.06,0.29c-0.99,0.38-0.85,0.25-1.66,0.19C62.92,55.94,63.86,55.91,63.81,55.67z M50.52,58.8c0.32-0.07,0.29,0.12,0.39,0.22c0.65-0.15,1.3-0.3,1.94-0.45C52.38,59,50.53,59.55,50.52,58.8z M106.7,47.75 c0.41,0.49-1.45,0.36-1.22,0.81c0.44,0.15,1.29,0.02,1.71,0.18c-0.44,0.33-1.88,0.75-2.6,0.58c-0.11-0.45,0.28-0.78,0.48-1.15 C106.04,48.14,105.9,47.82,106.7,47.75z M130.41,44.2c0.88-0.12,1.88-0.32,2.33-0.18c0.07,0.55-0.85,0.8-1.18,1.23 C130.77,45.05,130.03,44.71,130.41,44.2z M144.64,42.56c0.44-0.05,0.88-0.11,1.32-0.16c0.03,0.25,0.06,0.5,0.09,0.75 c-1.24,0.09-1.92,0.35-1.91,0.83c-0.92-0.32-2.06-0.35-2.42-0.62C143.1,43.26,144.84,43.65,144.64,42.56z M126.13,47.23 c0.76-0.15,0.71-0.51-0.06-0.45c0.07-0.22,0.81-0.24,1.29-0.33c-0.56,0.64,0.1,1.15,1.17,1.2c-1.46,0.67-3.41-0.02-4.58,0.8 c-0.26-0.34-3.06-0.55-3.02-0.03c-1.56,0.17-0.13-0.56-1.42-0.56c0.22-0.29,2.2-0.33,2.04,0.17c0.54-0.03,0.55-0.22,0.97-0.29 c-0.03-0.26-0.31-0.35-0.72-0.35c0.77-0.3,1.06-0.73,2.57-0.82c-2.17-0.23,0.86-0.9,2.24-0.77c-0.43,0.55-1.41,0.26-1.94,0.58 C124.98,46.77,126.29,46.54,126.13,47.23z M117.38,47.1c0.84-0.1,1.31,0.04,1.41,0.41C118.01,47.57,117.23,47.63,117.38,47.1z M120.74,47.08C119.43,48.05,118.48,46.26,120.74,47.08L120.74,47.08z M98.44,50.77c-0.76,0.12-1.53,0.26-2.29,0.41 c0.11-0.19,0.72-0.48,1.28-0.63C97.99,50.41,98.51,50.41,98.44,50.77z M159.33,42.28c0.75,0.27,1.11-0.23,2.31-0.23 c0.02,0.2,0.04,0.4,0.06,0.6c-1.34,0.26-1.13,0.13-2.64,0.26C158.99,42.65,159.44,42.55,159.33,42.28z M156.37,42.72 c0.8,0.02,1.56,0.05,1.72,0.44c-0.66,0.06-1.32,0.13-1.98,0.19C155.93,43.05,156.29,42.93,156.37,42.72z M163,42.22 c0.95-0.07,1.59,0.04,1.39,0.62C163.46,42.91,162.97,42.72,163,42.22z M98.7,52.25c0.1-0.3-0.6-0.82,0.53-0.85 C99.78,51.55,99.85,52.18,98.7,52.25z M95.68,52.34c1.55-0.25,0.98,1.61,3.17,0.81c0.11,0.36,0.19,0.71-0.53,0.85 c0.31,0.17,0.88,0.19,1.69,0.03c-0.8,0.38-1.99,0.64-2.91,0.65c1.04-1.07-1.88-0.19-1.26-1.45c-1.15,0.83-3.04,0.61-3.07,1.64 c-0.03,0.41,1.8-0.48,1.38,0.2c-0.97,0.29-1.21,0.07-1.98,0.21c-0.39-1.05,1.96-1.64,1.96-2.2c0.8-0.17,1.57-0.32,1.99-0.21 C96.11,52.6,95.66,52.63,95.68,52.34z M70.64,57.47c1.11-0.02,1.63,0.4,2.78,0.35C73.28,58.38,69.55,58.34,70.64,57.47z M172.05,42.7c0.98,0.03-0.15,0.5,0.07,0.75c-0.92,0.21-0.87-0.13-1.66,0.01C170.52,42.86,172.23,43.52,172.05,42.7z M176.02,42.38 c-0.06,0.66,0.01,0.69-0.24,1.07c-0.95-0.66-1.78,0.03-3-0.06c-0.06-0.27,0.38-0.36,0.28-0.63 C174.06,43.43,173.9,42.15,176.02,42.38z M187.29,41.82c0.94,0,1.2,0.38,1.38,0.8c-0.33,0.03-0.66,0.05-0.99,0.08 c-0.04-0.21-0.09-0.42,0.3-0.47C187.76,42.09,187.21,42.13,187.29,41.82z M279.1,40.32c0.34-0.27,2.01,0.14,1.97,0.51 C280.38,40.68,279.6,40.56,279.1,40.32z M140.46,46.69c0.74,0.14,1.65,0.17,2.06,0.51C141.72,47.09,140.33,47.35,140.46,46.69z M191.62,41.95c0.83-0.23,1.5,0.42,0.7,0.55c-0.22,0.01-0.44,0.03-0.66,0.05C192.19,42.21,191.62,42.36,191.62,41.95z M82.23,56.21 c0.5,0.04,1.08,0.03,1.09,0.41c0.38,0.42-0.79,0.46-0.87,0.77c-0.04,0.25,0.36,0.2,0.41,0.38c1.1-0.27,0.34-0.48,1.6-0.45 c0.71-0.16,0.63-0.5,0.51-0.86c0.72,0,1.22,0.15,1.14,0.71c-1.25,0.16-2.02,0.44-2.19,0.86c0.27,0.09,0.64,0.11,1.03,0.11 c-0.39,0.52-0.7,0.26-1.89,0.66C81.01,58.17,83.56,56.7,82.23,56.21z M185.41,43.32c1.63-0.11,0.09,1.28-0.61,0.8 C185.57,43.76,185.12,43.86,185.41,43.32z M69.45,59.87c-0.55,0.34-0.88,0.73-0.76,1.23c-0.94,0.01-1.28-0.42-1.84-0.69 C67.93,60.52,68.58,59.75,69.45,59.87z M72.34,59.12c0.57-0.26,1.17,0.22,1.3-0.27C75.14,59.04,72.14,59.82,72.34,59.12z M191.7,43.15c0.52,0.17,0.99,0.71,0.4,1.02c-1.18,0.04-2.12-0.22-2.29,0.48c-1.01,0.19-0.44-0.49-1.67-0.18 c0.43-0.48,2.18-0.56,2.95-0.53c0.3-0.47-0.76-0.21-1.34-0.2C189.67,43.12,191.66,43.37,191.7,43.15z M275.41,41.71 c1.11,0.17,0.15,0.28,0.31,0.76C274.71,42.25,274.67,42,275.41,41.71z M266.79,42.2C264.77,42.76,264.56,41.57,266.79,42.2 L266.79,42.2z M192.75,43.98c1.03-0.13,0.78,0.42,2,0.19c-0.37,0.29-1.71,0.21-2.29,0.43C192.39,44.33,192.84,44.26,192.75,43.98z M206.04,44.92c0.17-0.38,1.26-0.39,0.95-0.95c0.4,0.15,1.17,0.11,1.98,0.04c-0.29,0.28-1.14,0.45-1.64,0.24 c0.56,0.61,1.76,0.29,2.67,0.46c-0.13,0.35-1.62,0.15-2.3,0.28C208.52,44.23,206.81,45.43,206.04,44.92z M252.23,43.1 c0.41,0.49-1.07,0.1-0.66,0.59c-0.66-0.01-0.42-0.41-1.32-0.32C250.58,43.13,251.66,43.23,252.23,43.1z M255.54,43.44 c1.9-0.34,6.01,0.41,0.99,0.16C256.47,43.42,255.92,43.46,255.54,43.44z M243.98,44.02c0.59,0.63,3.14,0.34,3.3,1.16 c0.56,0,1.14,0.01,1.61-0.03c0.48-0.03,0.86-0.1,1.03-0.28c0.63,1.24-7.28,0.32-8.58-0.68C242.16,43.71,243.52,44.79,243.98,44.02z M254.86,45.83C258.85,45.82,255.85,46.75,254.86,45.83L254.86,45.83z M264.51,1c1.5,0.49,2.75,1.09,4.48,1.1 C267.43,2.65,265.51,1.57,264.51,1z M247.19,2.05c1.44-0.09,1.53,0.41,3.11,0.29c-0.79-0.13-0.55,1.24,1.38,1.52 c0.49-0.31,0.05-0.61,0-1.05c0.81,0.05,0.77,0.47,1.38,0.61c0.56-0.25,1.94-0.14,2.08-0.58c0.46,0,0.92,0.01,1.38,0.01 c-0.02,0.91,2.08,0.92,2.06,1.82c-0.96-0.29-1.86-0.61-3.1-0.78c-1.4,0.46,1.44,1.3-0.01,1.5c1.14,0,1.77,0.62,2.4,1.23 c0.6-0.03,0.78-0.25,0.69-0.59c0.7,0.97,1.9,1.36,3.44,0.64c-0.42,0.51,1.7,0.83-0.36,0.9c0.57,0.07,2.7,0.45,3.09-0.11 c0.43,0.22,1.19,0.29,2.14,0.32c0.96,0.02,2.11,0,3.36,0.07c0.8-0.43,0.61-1.33,2.1-1.44c0.6,0.3-0.45,0.68-1.06,0.87 c3.78,0.79,5.7,0.06,7.91,0.26c-0.18-0.49,0.26-0.69,0.38-1.04c0.3,0.12,0.77,0.19,1.37,0.19c-0.01,0.2-0.01,0.4-0.02,0.6 c1-0.47,3.55,0.55,5.16,0.32c0.05,0.49-1.24,0.33-1.74,0.55c1.22,0.3,2.33,0.77,3.68,1.19c1.36,0.44,2.96,0.86,5.16,1.01 c0.72,0.33-2.62-0.1-3.1,0.13c0.21,0.65,3.88-0.03,2.72,0.6c0.46,0.27,1.8-0.42,1.74-0.51c1.21,0.08,0.08,0.22,0.65,0.64 c-1.18-0.28-2.62,0.47-3.14,1.03c1.22,0.23,1.68,0.74,3.04,0.92c-0.75,0.09-2.67,0.39-1.75,0.81c-1.1,0.15-2.19-0.04-3.76-0.2 c-0.52,0.54,0.93,0.34,0.65,0.79c1.09-0.17,1.5,0.03,2.73,0.15c-0.53,0.8-2.87,0.7-3.49,1.46c0.73,0.31,2.97,0.07,2.76-0.6 c1.83,0.28-1.87,0.78,0.28,1.22c-0.41,0.25-0.91,0.46-1.4,0.68c0.57,0.29,3.04,0.68,2.32,1.33c-0.6-0.07-0.76-0.3-0.65-0.64 c-0.45,0.03-0.55,0.24-1.04,0.24c0.44,0.32,0.76,0.7,1.67,0.84c0.18,0.44-2.24,0.81-1.38,0.23c-0.84,0.24-1.85,0.39-1.75,1.11 c1.04-0.77,2.97,0.04,4.03,0.82c-1.17,0-2.41-0.05-3.05-0.17c-0.7,0.23-0.12,0.55-1.37,0.23c0.38,0.9-0.53,1.38-0.44,2.24 c0.89-0.15,0.68-0.63,0.39-1.03c1.2,0.44,0.74,0.76,0.28,1.37c1.22-0.04,1.25-0.7,1.41-1.28c1.79,0.71-1.87,1.79,0.56,2.44 c-3.22-0.27-1.07,1.37-3.12,1.79c0.06,0.13,0.34,0.17,0.33,0.32c0.13-0.91,3.14-0.34,3.43-1.17c1.01,0.03,0.45,1.3,1.32,0.53 c0.74,0.29-0.66,0.78-0.73,1.16c-0.27-0.09-0.54-0.18-1-0.2c-0.17,0.49-1.7,1.07-0.75,1.61c-0.47,0.36-1.15-0.43-2-0.41 c-0.69,0-0.69,0.37-1.04,0.55c0.29,0.28,0.6,0.56,1.66,0.54c-0.53,0.25-0.47,1.16,0.95,1.11c-0.91,0.2-1.38,0.72-0.73,1.31 c-0.76-0.34-1.77-0.59-1.96-1.16c0.62,0.01,1.12-0.04,1.36-0.23c-0.06-0.13-0.33-0.17-0.32-0.32c-1.05,0.33-2.05,0.62-1.41,1.43 c-0.73-0.02-1.06-0.18-0.99-0.5c-0.73,0.2-0.59,0.58-0.05,0.92c0.54,0.34,1.47,0.67,2.33,0.7c-1.71,0.87,1.37,1.23,0.89,2.46 c-0.72-0.03-1.83,0.24-2.67,0.01c-0.51,0.7-1.55,1.17-2.41,1.72c-4.61-0.36-6.95,2.48-8.44,3.64c-1.47,0.19-5.26,0.05-6.29-0.06 c-0.68,0.31-1.57,0.4-2.51,0.44c-0.94,0.06-1.93,0.07-2.8,0.2c-2.21,0.33-3.36,0.89-5.31,0.99c-2.16,0.12-5.99-0.02-8.26,0.06 c-1.53,0.05-2.95-0.17-4.39-0.27c-1.44-0.12-2.91-0.18-4.54,0.16c1.52,1.23-5.43,1.02-6.94,0.38c0.88-0.08,2.49-0.15,4.29-0.2 c-0.09-0.31-1.45-0.03-1.66-0.28c0.41-0.22,1.13-0.3,1.98-0.32c-1.06-0.36-3.09-0.37-4.97-0.7c-0.33,0.3-1.23,0.36-1.65,0.62 c-0.5-0.12,0.08-0.23-0.34-0.6c0.27,0.08,0.54,0.15,0.99,0.14c-0.03-0.46-2.3-0.27-1.34-0.74c-0.94,0.13-0.86-0.2-1.66-0.13 c-0.58,0.14-0.54,0.56-1.31,0.61c0.05,0.33,1.41,0.05,1.99,0.13c0.05,0.27-0.4,0.32-0.32,0.6c-1.22-0.03-1.2-0.67-2.99-0.39 c0.42-0.18,2.64-0.95,0.31-0.91c1.36-0.46,2.19-0.16,3.97-0.37c-0.33-0.49-3.13,0.16-3-0.87c0.44,0,0.88-0.01,1.33-0.01 c-0.55,0.78,1.64-0.24,2.33,0.13c0.04,0.41-0.55,0.31,0.01,0.6c0.97-0.2,1.98,0.08,3.64-0.04c-0.29-0.26-1.47-0.24-0.67-0.6 c-1.63,0.19-1.33-0.11-2.67-0.57c0.96-0.35,3.94,0.17,2.98-0.33c1.87,0.1,4.15,1.56,7.31,1.12c-0.08,0.16-0.66,0.11-0.66,0.31 c0.08,0.38,0.57-0.21,1.33-0.01c0.13-0.77-1.38-0.39-2.66-0.72c1.06-0.21,4.07,0.15,5.64-0.21c-1.98-0.37-0.62-0.8-2.99-0.72 c-0.79,0.05,0.37,0.4,0.66,0.44c-0.33,0.38-1.47-0.1-1.33-0.44c-1.45,0.19-2.89,0.5-4.64,0.35c0.56-0.53,2.85,0.04,3.65-0.64 c-0.4-0.21-1.58-0.18-0.67-0.59c-0.38,0.13-0.89,0.21-1.66,0.17c0.01,0.15,0.41,0.11,0.66,0.14c-1.44,0.07-4.11,0.84-5.65,0.21 c-0.44,0.1-0.61,0.33-0.65,0.61c-0.83-0.15-1.81-0.32-0.68-0.6c-1.36,0.15-2.17,0.54-2.3,1.23c-1.05-0.44-1.94-0.15-3.65-0.08 c0.23,0.29,1.02,0.31,1.34,0.56c-1.1,0.17-1.06,0.23-2.64,0.39c0.02-0.41-0.56-0.28-0.01-0.6c-0.26,0.09-0.53,0.17-0.99,0.18 c1.14,0.44,0.38,0.89,1.69,1.15c-0.3,0.29-1.68-0.17-2.65-0.06c-0.31,0.81,2,0.33,1.69,1.15c-0.64,0.09-2.12-0.15-1.33-0.26 c-2.65-1.16-7.44,0.24-8.89,1.34c0.76,0.54,0.87-0.41,1.98-0.21c0.05,0.53,0.66,0.64-0.3,0.91c-0.96-0.05,0.5-0.25,0.32-0.46 c-1.73,0.51-2.21-0.07-3.95,0.43l-0.02-0.45c-0.94,0.01-1.62,0.1-2.35,0.18c-0.73,0.08-1.5,0.15-2.59,0.15 c0.22,0.14,0.76,0.11,0.68,0.41c1.06-0.03,1.39-0.32,2.63-0.25c-1.16,0.63-1.51,0.32-2.94,0.87c-0.21-0.5-0.77-0.83-1.69-0.96 c0.02-0.43,1.36-0.35,2.3-0.43c-0.57-0.06-0.56-0.42-1.02-0.54c-0.87,0-0.84,0.36-0.97,0.65c-1.9-0.36-2.89-0.34-6.62-0.09 c0.72,0.3-0.39,0.69,0.71,0.87c-1.43,0.19-5.56-0.7-7.28,0.09c-0.66-0.13,0.95-0.6,1.62-0.69c0.59,0.44,1.54,0.1,2.65,0.01 c0.14-0.33-0.49-0.26-1.01-0.25c0.04-0.47,2.16-0.14,1.95-0.71c0.57,0.37,1.67,0.46,3.33,0.27c-0.15-0.23-1.04-0.07-0.69-0.57 c1.22-0.17,0.85,0.48,1.36,0.68c0.44-0.06,0.58-0.66,0.66-0.04c0.53-0.44,0.86-0.12,1.97-0.41c-1.13-0.05-1.6-0.11-3-0.29 c0.61-0.35,0.86-0.84,2.28-0.87c-0.33-0.14-0.67-0.27-1.02-0.4c-1.17-0.02-0.79,0.58-1.96,0.56c0.25,0.13,0.61,0.2,1.01,0.25 c-0.65,0.38-1.71,0.43-2.31,0.13c-0.12-0.34,0.95-0.22,0.97-0.5c-0.07-0.12-0.34-0.13-0.35-0.28c-1.5,0.58-6.47,0.51-2.58,1.34 c-1.81,0.65-3.65-1.04-6-0.43c-0.63-0.57-0.49-0.64-1.4-1.13c1.38,0.19,1.16-0.75,1.94-0.86c-0.55-0.06-2.2,0.7-2.58,1.19 c-0.78-0.06-0.92-0.44-1.69-0.48c-1.16,0.72,1.04,1.3,0.13,1.95c-0.48,0.12-1.72-0.05-1.64,0.28c-0.52-0.01,0.27-0.29-0.35-0.28 c0.86-0.64,0.93-0.7,0.89-1.58c-2.64,0.52-7.37,0.99-10.23,1.23c-0.39,0.05-0.25,0.29-0.29,0.48c-1.3,0.09-1.85-0.23-2.7-0.4 c0.2-0.37,0.55-0.67,1.61-0.72c-0.29-0.34-3.29-0.32-2.97,0.38c-0.75-0.27-1.54-0.37-2.34-0.36c-0.8,0.02-1.63,0.13-2.47,0.25 c-1.68,0.25-3.42,0.56-5.17,0.28c0.45-0.59,2.43-0.33,2.26-0.82c0.85-0.07,1.18,0.16,1.69,0.29c0.68-0.15,0.91-0.46,1.96-0.49 c-0.72-0.49-0.24-1.04,0.2-1.53c-1.23-0.19-2.01,0.11-2.62,0.56c-0.73-0.46-2.81-0.2-1.96,0.49c-0.49-0.45-2.99-0.87-4.32,0.27 c-1.71-0.07-2.44,0.15-4.33,0.12c-0.47,0.27-0.47,0.71-0.56,1.11c-0.44,0.04-0.88,0.09-1.32,0.13c0.62-0.73-0.56-0.74-0.13-1.2 c1.21,0.45,3.25-1.33,1.23-1.03c0.31-0.28,1.4-0.3,1.96-0.49c-0.53,1.64,4.71-0.5,7.02-0.08c0.45-0.09,0.24-0.4,0.28-0.63 c0.79-0.14,0.75,0.2,1.67-0.01c0.07,0.26-0.38,0.35-0.27,0.63c0.39-0.43,1.06-0.39,1.97-0.34c0.72-0.24-0.06-0.99,0.91-1.15 c-1.17-0.2-1.13-0.26-1.41-0.77c-0.47,0.08-0.07,0.46-0.63,0.51c-0.55,0.48,0.26-0.41-0.07-0.75c0.66,0.22,0.84-0.06,1.66-0.16 c0.07,0.27-0.38,0.36-0.28,0.63c0.1,0.15,0.67,0.04,0.69,0.24c0.46-0.23,0.45-0.62,0.93-0.85c0.89,0.3-0.55,1.23,0.79,1.43 c-0.04,0.25-1.6-0.09-1.29,0.58c0.71,0.24,3.29-0.49,3.7,0.29c-0.67,0.32-2.06,0.08-2.37-0.27c-1.39,0.84-0.84,1.77-0.77,2.64 c3.17-0.15,2.47-1.68,5.58-1.05c0.72-0.08,0.68-0.43,0.6-0.8c-0.4,0.2-0.67,0.18-0.68-0.1c1.88,0.71,1.66-0.86,3.3-0.55 c-0.27-1.01-1.31,0.02-3.04-0.37c-0.13,0.61,1.17-0.25,1.04,0.52c-0.96,0.09-1.96-0.48-2.32,0.18c-0.49-0.15-0.67-0.47-0.74-0.85 c0.79,0.17,1.43-0.16,1.67,0.02c0.68-0.09,0.63-0.45,0.95-0.67c-1.23-0.04,0.18-0.66-1.04-0.52c0.42-0.33-0.25-1.06,1.25-1 c-0.77-0.62-2.9,0.27-3.63,0.58c-1.19-0.17,0.81-0.36,0.61-0.65c-0.74-0.2-1.99,0.19-1.97,0.45c-0.98-0.27,0.94-0.72,1.26-1 c1.54,0.45,2.28-0.35,4.34-0.18c0.93,0,0.27-0.58,0.95-0.67c-1.73,0.06-0.51-0.78-2.06-0.6c0.27-0.46,0.26-0.48-0.07-0.9 c-0.33,0.12-0.32,0.37-0.98,0.38c0.17-0.61-0.19-0.75-1.44-1.1c-0.92,0.17,1,0.72-0.95,0.67c0.31,0.2,0.31,0.56,1.37,0.35 c-0.16,0.62-1.21,0.92-2.25,1.23c-0.17-0.5,1.46-0.35,0.93-0.98c-0.62-0.28-1.54-0.43-2.73-0.39c-0.1,0.27,0.28,0.25,0.69,0.24 c-0.26,0.59-1.33,0.24-1.04-0.36c0.92-0.31,1.93-0.54,1.25-1.01c0.46,0.15,0.7,0.4,1.35,0.05c-0.45-0.39-1.1-0.49,0.28-0.77 c-0.47-0.54-1.37,0.13-2.37-0.12c0-0.38,0.59-0.52-0.06-0.75c-1.11,0.11-0.27,0.88-0.91,1.15c0.12,0.3,0.92,0.21,1.38,0.32 c-0.72,0.58-1.68-0.52-1.3,0.57c-0.79,0.14-0.75-0.2-1.68,0.01c-0.18-0.5,0.03-0.86,1.27-0.88c-0.31-0.5-0.98-0.4-0.08-0.9 c-0.39,0.06-0.6,0.02-0.68-0.08c-1.07,0.03-0.06,0.76-1.28,0.73c0.9,0.63-0.15,0.89,0.83,1.73c-0.74-0.61-1.61,0.04-2.68,0.11 c0.35,0.43,1.66,0.31,1.76,0.88c-0.57,0.05-0.85,0.2-0.97,0.4c0.16-1.01-2.01,0.24-2.42-0.67c1.34,0.38,1.03-0.73,1.59-1.06 c-0.69-0.27-2.12-0.15-3.42-0.42c1.49-0.52,2.09-0.25,3.62-0.96c-0.79-0.08-2.51-0.1-1.42-0.77c-0.14-0.22-0.58,0.19-0.68-0.08 c-0.47,0.32,0.49,0.78-0.55,1.26c-1.28,0.26-0.61-0.6-2.06-0.25c-0.29-0.53,1.14-0.49,1.62-0.76c0.03-0.33-1.19,0.05-1.69,0.01 c-0.39,0.06-0.25,0.3-0.29,0.48c-1.33-0.43-3.56,0.64-3.76-0.39c-1.06,0.03-0.91,0.47-1.28,0.73c-0.59,0.44-0.06-0.24-0.05-0.45 c-0.88-0.01-1.2,0.18-0.96,0.55c-0.59-0.24-1.39-0.37-2.41-0.37c-0.55,0.74,1.35,0.07,1.09,0.65c-1.69,0-2.19-0.14-4.03,0.29 c0.06,0.6,1.16,0.58,2.42,0.47c-0.86,0.41-0.95,0.39-0.57,0.98c-0.75,0.57-1.56-0.6-2,0.24c-0.5-0.01,0.11-0.21-0.05-0.45 c-1.01-0.1-1.97,0.63-3.6,1.03c0.55-0.65-0.27-0.64-1.38-0.29c-0.72-0.27,0.51-0.91-1.42-0.59c-0.45-0.67,1.97-0.44,1.92-0.98 c0.28-0.06,0.32,0.02,0.35,0.11c-0.05,0.13,0.15,0.12,0.35,0.11c0.28,0.37-0.66,0.37-0.95,0.57c0.37,0.51,0.99-0.03,2.02-0.09 c-0.22-0.28-1.04-0.17-0.4-0.56c-0.82-0.44-2.63-0.31-4.06,0.03c0.3,0.62-0.27,0.97-0.86,1.31c0.93,0.24,1.5,1,0.88,1.71 c-0.91-0.59-1.54,0.54-1.56,1.09c-0.69,0.15-0.89,0-1.35,0.01c0.69,0.58-0.44,0.16-1.94,0.69c0.28-0.97-2.42-0.15-3.11-0.54 c1.15-0.74-1.12-0.39-0.82-1.11c-0.62,0.52-1.02,0.7-1.92,0.87c0.25,0.28,1.68-0.2,1.41,0.41c-1.6,0.49-2.28,0.45-3.57,1.11 c-0.91-0.22-1.57-0.08-2.34,0.18c1.01,0.35,2.66,0.37,3.75,0.23c0.32,0.86,0.06,1.11,0.88,1.55c-0.68,0.16-0.89,0.02-1.34,0.04 c-0.38,0.08-0.24,0.31-0.27,0.49c0.08,0.33,1.41-0.13,2-0.13c-0.01,0.27,0.44,0.26,0.41,0.55c-0.8,0.02-1.54,0-2.66,0.22 c1.52,0.29,0.5,0.83,0.22,1.64c-0.37,0.01-0.26-0.26-0.71-0.2c-0.59,0.4-0.6,0.97-1.5,1.27c-0.05,0.36,0.97,0.03,1.05,0.31 c-0.34,0.52-0.99,0.95-2.18,1.22c-0.19-0.48,1.42-0.44,0.87-1.03c-1.41,0.03-2.91,0.27-3.44-0.58c-0.6,0.07-0.67,0.28-1.3,0.33 c-0.01,0.27,0.45,0.26,0.41,0.55c-0.97,0.36-1.97,0.31-2.99,0.27c-0.18-0.34,0.56-0.41,0.22-0.79c1.45-0.01,1.25-0.49,1.56-0.83 c-0.1-0.48-1.99,0.17-1.76-0.51c1.16,0.03-0.27-1.26-1.19-1.2c-0.57,0.4-0.54,0.98-1.85,1.17c-0.26-0.54-1.51-0.46-2.76-0.37 c-0.29,0.16-0.46,0.35-0.59,0.55c-1.02,0.24-0.82-0.33-2.02,0.02c0.39-0.54,1.66-0.06,1.95-0.47c-0.35-0.42-0.94-0.69-1.81-0.77 c-0.35,0.29-0.9,0.52-0.88,0.9c-0.53-0.15-1.5,0.08-1.27,0.51c-1.04,0.3-0.53-0.42-1.39-0.23c-0.28,0.02-0.3,0.11-0.31,0.2 c-1.08,0.01,0.25-0.47,0.95-0.46c-1.2-0.47,0.01-0.25,0.9-0.76c-1.5-0.05-2.29-0.56-4.74,0.01c-0.41-0.38-0.77-0.54-1.73-0.18 c-0.16-0.47,0.28-0.78,1.2-0.96c1.28,0.69,3.7,0.62,6.19,0.51c-2.01-0.48-5.02-0.79-6.92-0.85c-0.64,0.6-0.94,1.24-2.05,2.01 c0.33,0.27,0.9,0.39,2.06,0.12c0.44-0.12,0.22-0.42,0.23-0.65c0.7-0.02,1.29,0.03,1.11,0.58c-0.41,0.38-1.63-0.09-1.25,0.66 c-0.31-0.02-0.61-0.03-0.71-0.19c-0.04,0.42-0.38,0.61-1.17,1.11c0.38,0.43,2.24-0.47,2.13,0.57c-0.39,0.02-1.48-0.43-1.32,0.21 c-1.13-0.62-1.72,0.45-1.77-0.47c-0.57,0.04-0.6,0.22-0.61,0.4c-0.78,0.09-0.3-0.62-0.12-0.74c-0.31-0.22-2.24-0.8-2.38-0.07 c-0.58,0.49-0.18-0.4-0.1-0.59c1.44-0.24,2.1,0.04,3.07,0.11c-0.01-0.38-0.6-0.37-0.79-0.63c-1.63,0.63-2.54-0.17-4.7,0.31 c0.14,0.66,0.79,0.07,1.4,0.23c0.04,0.25,0.09,0.49,0.13,0.74c-0.7-0.11-1.13,0.34-1.7-0.02c0.01-0.4,0.6,0.11,1.32-0.22 c-1.53-0.39-2.42-0.27-1.58-1.26c-0.11-0.15-0.67,0.02-0.71-0.17c-0.32,0.34-0.42,1.03-1.57,0.75c0.03,0.25,0.31,0.34,0.74,0.32 c-0.62,0.29-1.79-0.3-3.32,0.46c-0.33-0.55,0.17-0.9,0.09-1.39c-0.71,0.06-0.59,0.33-0.58,0.57c-0.92,0.53,0.48-0.98-0.79-0.62 c-0.67,0.17,0.04,0.67-0.88,0.78c0.18,0.16,0.48,0.23,1.05,0.11c0.14,0.47-1.36,0.93-0.47,1.16c0.99-1.06,2.23,0.14,3.62-0.67 c-0.14,0.71,0.59,0.81,0.59,1.42c-0.87,0.07-1.18,0.28-0.91,0.63c-1.81-0.31-0.82,1.12-2.57,0.78l0.08,0.44 c0.15,0.37,0.53-0.31,1.31-0.24c0.32,0.41-0.24,0.6-0.17,0.95c-1.1-0.46-2.86,1.09-2.98,0.4c-0.32,0.38-0.05,0.45-0.49,1.01 c1.03,0.4,3.15-0.84,4.97-0.61c0.74-0.31-0.92-0.34-1.42-0.35c0.21-0.55,0.71-0.27,1.31-0.24c0.2-0.53-0.59-0.37-1.09-0.41 c0.2-0.38,1.08-0.58,1.54-0.9c-0.15-0.29-0.93-0.13-1.39-0.2c0.95-1.13,3.13-0.62,4.02-0.29c-0.47,0.62-0.73-0.25-1.37-0.05 c-0.42,0.18-0.55,0.43-0.55,0.71c0.26,0.09,0.64,0.11,1.04,0.11c-0.39,1,1.05,0.94,2.79,0.85c1.74-0.09,3.76-0.27,4.52,0.35 c-1.77,0.15-4.78-0.14-5.66,0.47c-0.61-0.24-1.65-0.18-2.42-0.31c-0.01,0.45,0.82,0.32,0.81,0.77c-1.78,0.14-1.34,0.72-2.59,0.63 c-0.11,0.69,1.06,0.48,1.19,1c-0.56,0.05-0.59,0.23-0.6,0.42c-0.52,0.03-0.36-0.41-1.36-0.05c-0.82,0.48,0.17,0.99,1.09,0.41 c-0.28,0.4-1.04,0.68-0.79,1.22c-2.92,0.67-2.87,2.49-5.97,2.33c-0.12-0.45,0.26-0.78,0.46-1.15c0.68,0.16,0.58-0.2,1.63-0.3 c0.25,0.44-0.6,0.71,0.16,0.89c0.28-0.49,0.56-0.99,1.08-1.42c-0.7-0.09-1.46-0.2-0.46-0.68c-0.14-0.29-1.44,0.22-1.68,0.01 c-0.29,0.17-0.45,0.36-0.57,0.56c-0.51-0.04-0.56-0.39-0.79-0.62c0.52,0.13,2.18-0.18,2.62-0.48c-0.21-0.19-0.55-0.28-0.76-0.47 c-0.89,0.12,0.97,0.41-0.57,0.56c-0.27-0.53-0.08-0.96,0.44-1.3c-0.11-0.15-0.67,0.02-0.71-0.17c-0.73,0.29,0.19,0.99-1.15,1.13 c-0.86-0.2,0.44-0.37,0.19-0.8c-1.25,0.12-0.07,0.83-1.52,0.9c0.24-0.22,0.36-0.48,0.19-0.8c-0.82,0.13-0.97,0.42-1.58,0.6 c0.22,0.63,1,0.86,2.78,0.4c0.16,0.46-1.1,0.57-1.52,0.89c0.16,0.33,1.56-0.2,1.42,0.35c-1,0.24-1.62-0.05-2.28,0.42 c-0.19,0.47,0.53,0.3,0.46,0.68c-0.57,0.05-0.59,0.23-0.6,0.42c-0.97-0.2-2.13,0.41-2.55,0.78c-1.57-0.04-3.06,0.03-4.53,0.18 c-1.47,0.15-2.93,0.38-4.42,0.73c0.2-0.49,0.45-0.27,1.27-0.42c-0.28-0.36-1.43-0.08-1.48-0.61c0.97-0.57,0.73-0.5,0.15-0.95 c0.8-0.52,2.52-1.11,1.36-1.67c1.01-0.34,1.05,0.02,1.69-0.04c0.4-0.28,0.55-0.58,1.28-0.42c-0.14-0.8-2.68,0.14-3.74,0.01 c0.73-0.51-0.54-0.17-0.47-0.67c0.25-0.13,0.5-0.26,0.95-0.35c-0.4-0.27-1.22-0.24-2.38,0.03c0.27-0.46,0.07-0.89-1.17-0.68 c0.23-0.37,0.91-0.64,0.8-1.09c0.7-0.06,1.14,0.2,1.66-0.19c-0.58,0.03-2.3-0.07-0.71-0.16c0.19-0.53-0.6-0.35-1.1-0.38 c-0.28,0.17-0.44,0.37-0.57,0.58c-0.51-0.15,0.02-0.72-0.57-1.11c0.58,0.36,1.58-0.91,1.67-0.19c0.42-0.14,0.46-0.36,0.92-0.5 c-0.63-0.58-2.47-0.31-3.76,0.02c-1.11,0.38,0.96-0.51,0.51-0.87c0.28-0.09,0.32-0.01,0.36,0.08c0.22-0.05,0.44-0.09,0.66-0.14 c-1.75,0.93,1.64,0.15,2.45,0.26c0.55-0.27-0.3-0.56,0.15-0.95c0.71-0.17,0.25,0.49,0.48,0.67c1.64-0.11,1.15-0.69,2.21-0.92 c1.76,0.24,0.49,0.87,1.61,1.2c-0.29,0.26-0.83,0.47-0.86,0.79c-0.98,0.31-1.23,0.1-2,0.26c0.26,0.38,1.64-0.06,2.38-0.03 c1-0.54,0.62-0.64,2.18-1.06c-0.19-0.21-1.06,0.08-0.77-0.46c0.56-0.13,0.88-0.05,1.04,0.1c0.31-0.21,0.61-0.41,0.9-0.63 c-0.61-0.13-1.29-0.24-2.39,0c1.16-0.74,0.07-0.27-0.78-0.45c-0.31,0.16-0.27,0.41-0.92,0.5c0.71-0.5-0.5-0.35-1.11-0.38 c0.64-0.35,1.34-0.3,2.3-0.48c-0.09-0.11-0.36-0.08-0.39-0.23c-1.07-0.06-4.28,0.23-5.83-0.02c-0.13-0.07,2.33-0.03,2.96-0.62 c-0.64-0.33-2.5,0.23-2.81-0.34c1-0.01,2.38-0.29,3.3-0.68c0.03,0.15,0.06,0.3,0.09,0.44c1.04-0.21,1.29-1.01,2.94-0.76 c0.72-0.38,0.43-0.46,0.18-0.81c1.26-0.37,1.25,0.14,2.07,0.07c-0.19-0.48,0.53-1.47-0.64-1.56c-0.97,0.46-0.09,0.49-0.13,1.1 c-1.03,0.27-0.81-0.73-1.36,0.1c-0.63,0.19-0.61-0.58,0.25-0.5c-0.72-0.12-1.08-0.47-2.43-0.12c-1.31,0.01,1.29-0.26,0.93-0.5 c-0.16-0.38-2.21,0.7-1.26,0.57c-0.92,0.31-1.44,0.59-2.94,0.76c0.42-0.44,0.76-0.39,1.62-0.49c0.03-0.32-1.42-0.42-1.41-0.17 c-1.1,0.06,0.23-0.49,0.93-0.5c-0.58-0.97-0.36,0.33-2.76-0.04c0.04,0.14,0.43,0.03,0.69,0.01c-0.47,0.58-0.66,0.69-1.53,0.93 c0.02,0.21,0.03,0.43,0.42,0.37c-0.71,0.67-1.53,0.77-2.51,1.14c0.41,0.35,0.83-0.39,1.35-0.12c0.13,0.48,0.45,1.35,1.06,1.77 c-0.84-0.01-1.81,0.07-1.83-0.54c0.33-0.07,0.66-0.14,0.99-0.21c-1.26,0.03-0.46-0.46-1.47-0.46c-0.48,0.16,0.17,0.16,0.09,0.44 c-0.9-0.2-2.72,0.27-3.46-0.05c-0.27,0.22-1.2,0.3-0.89,0.65c-0.84-0.44-2.39,0.68-2.76-0.04c0.66-0.45,1.47-0.06,2.67-0.4 c0.48-0.17-0.17-0.16-0.09-0.44c0.8,0.27,1.81-0.12,3-0.47c-1.66,0-3,0.42-4.29,0.89c-0.22-0.18-0.57-0.27-0.79-0.45 c-1.31,0.65-1.74-0.03-3.66,0.63c1.94-0.15-0.41,0.36,0.49,0.66c1.02-0.22,0.84-0.67,2.24-0.79c0.78,0.25-0.67,0.52,0.19,0.88 c-0.75,0.04-1.36-0.06-2.37,0.2c-0.68,0.11,0.16,0.41,0.43,0.36c-0.18,0.49-1.08,0.16-1.64,0.38c0.47-0.62,0.57-0.54-0.49-0.66 c-0.73,1.11-2.23-0.43-2.96,0.68c-1.34,0.38,0.17-0.43-0.79-0.44c0.16,0.87-0.85,0.01-2.24,0.82c2.22-0.26,3.4,0.14,5.09-0.4 c0.92,0.02-1.26,1.06,0.75,0.29c0.51,0.38-1.03,0.36-0.52,0.74c-0.94,0.19-1.43,0.05-2.36,0.24c0.14-0.5-0.45-0.46-0.52-0.8 c-1,0.58-1.18,0.59-1.71,0.08c-0.58,0.77,0.67,0.59,1.25,0.95c-1.11,0.38-1.31,0.07-2.33,0.38c0.02,0.1,0.04,0.19,0.07,0.29 c0.68,0.11,2.13-0.35,2.72-0.17c0.96-0.32-0.39-0.24-0.13-0.59c1.21-0.35,1.11,0.21,0.46,0.51c0.27,0.53,4.33-0.76,3.54-1.12 c2-0.92-0.8,1.24,1.83,0.5c-0.04-0.14-0.43-0.02-0.69,0c0.84-0.78,1.26,0.17,1.77,0.22c0.19-0.18-0.19-0.73,0.07-1.24 c0.27-0.03,0.36,0.08,0.69,0.01c-0.03,0.14,0.16,0.11,0.36,0.08c-0.71,0.29-0.51,0.6,0.16,0.73c-0.15,0.18-0.86,0.41-0.26,0.36 c-0.22,0.47-1.08,0-1.97,0.42c0.04-0.13,0.3-0.22,0.26-0.37c-0.71,0.43-1.6,0.73-2.33,0.38c-0.76,0.41-1.88,0.75-2.13,1.26 c0.03-0.31-0.58-0.7-2.43-0.06c-0.2,0.62,1.68-0.05,0.82,0.58c-2.65,0.11-2.93-0.51-4.89-0.26c0.02,0.45,0.85,0.28,0.86,0.73 c-0.73-0.04-2.62-0.79-3.08,0.09c-1.07-0.21-1.31-0.02-2.72,0.17c-0.23,0.15,2.24-1.06,0.91-0.52c1.99-0.81,4.76-0.3,6.92-1.44 c-0.54,0-3.74,0.24-3.97,0.76c-1.67,0.17,1-1.49-1.48-0.43c0.91-0.79,2.38-0.66,3.94-0.91c0.81-0.21-0.01-0.52-0.13-0.58 c-0.54,0.08-0.53,0.27-0.95,0.37c-0.97,0.07-6.07,0.96-2.4,0.09c1.25,0.19,2.66-0.78,4.27-0.98c-0.61-0.27-0.9-0.1-1.52-0.58 c0.28,0.02,0.57,0.03,1.02-0.08c-1.79,0.39-2.57-0.75-4.15,0.03c0.15,0.17,0.85-0.07,1.35-0.16c-0.41,0.79-1.99,0.34-3,0.54 c-0.13-0.23,0.47-0.51-0.1-0.44c0.15-0.3,0.73-0.27,0.69,0c0.58-0.92-0.3-0.73-0.74-1.68c0.72-0.1,0.58-0.35,0.56-0.59 c1.58-0.27,2.38,0.04,3.5,0.12c1.05-0.73-1.91,0-0.86-0.73c0.65-0.03,0.33,0.38,1.02-0.08c-0.16-0.17-0.63-0.1-0.76-0.29 c-0.73,0.14-1.02,0.36-0.89,0.67c-1.47,0.04,0.81-1.11,1.74-1.48c-0.15-0.29-1.46,0.29-1.72,0.09c-0.88,0.16-0.13,0.63-1.22,0.74 c-0.09-0.83-0.97-0.3-1.72,0.09c0.29-0.53-0.03-0.52-0.54-0.8c-0.84,0.25,0.54,1.22-0.82,0.96c0.23,0.17-0.21,0.84,0.5,0.65 c-1.02,0.31-3.8,0.43-5.42,0.67c-0.14-0.33,0.65-0.42,1.31-0.47c0.66-0.05,1.21-0.07,0.59-0.31c0.05-0.44,1.04-0.25,0.73,0.14 c0.93-0.35,1.1-0.45,1.69-0.23c0.42-0.2,0.54-0.46,0.52-0.74c-1.04,0.09-0.96-0.66-2.49-0.2c-0.64-0.64-0.36-0.53-1.5-0.42 c-0.08-0.15,1.36-0.63,0.22-0.52c-0.13-0.3,1.16-0.34,1.63-0.53c-0.05,0.38,0.68,0.18,0.5,0.66c0.82-0.21,0.96-0.51,1.66-0.38 c-1.35-0.26,1.1-0.5,0.46-1.03c-1.31,0.08-0.54,0.55-1.59,0.67c0.19-0.61-1.63,0.3-1.17-0.5c-0.48,0.55-1.11,0.53-1.64,0.46 c-0.53-0.06-0.95-0.17-1.01,0.17c-1,0.12,0.34-0.48-0.18-0.73c0.78-0.03,1.52-0.01,2.43-0.12c-0.48-0.35-1.04-0.41-1.66-0.27 c-0.62,0.15-1.31,0.48-2.05,0.87c-0.06,0.28,0.32,0.21,0.73,0.12c-0.49,0.55-2.42,0.9-3.62,0.92c-0.17-0.23,1.78-0.73,1.35-0.19 c1.13-0.37,1.4-0.88,1.77-1.38c-0.4-0.04-1.66,0.28-1.98,0.5c-0.92,0.03-1.13-0.22-0.88-0.71c-0.72,0.25-1.11,0.56-1.17,0.92 c-1.8,0.47-1.3-0.85-2.94-0.5c0.23-0.29,0.38-0.59,1.22-0.77c0.02,0.14-0.38,0.22-0.63,0.31c0.12,0.73,1.21-0.11,1.76,0.02 c-0.08,0.27-1.01,0.39-0.51,0.75c0.6-0.13,0.65-0.36,1.29-0.48c-0.47-0.08-0.56-0.43-0.18-0.73c0.51,0.24,1.84,0.01,0.95-0.4 c0.85,0.1,1.63,0.36,2.76-0.23c-0.12,0.35-0.72,0.63-0.45,1.04c1.4-0.89,0.9-1.31,1.52-2.4c-0.93,0.32-0.54,0.25-1.58,0.71 c-0.24-0.16-0.43-0.72-0.7,0.02c-0.51-0.16-0.44-0.59-0.29-1.17c0.77-0.15,0.86,0.2,0.47,0.5c0.37-0.31,1.74-0.45,1.18-0.92 c0.59,0.4,1.22-0.34,2.06-0.2c-0.44-1.08-4.09,0.39-5.3-0.07c1.74-0.44,2.27-0.23,4.72-0.88c-0.07-0.29-0.95,0.03-0.8-0.42 c-0.73,0.41-0.66,0.55-1.33,0.34c-0.13-0.3,1.16-0.37,1.63-0.57c-0.36-0.18-1.23,0.03-1.77-0.02c-0.31,0.18-0.26,0.42-0.92,0.54 c-0.49-0.51-1.01-0.23-2.51-0.14c0.29-0.28,0.19-0.62,0.49-0.9c1.09-0.08,0.24,0.26,0.84,0.56c0.28-0.19,0.44-0.39,0.56-0.61 c0.92-0.2,1.12,0.17,1.5,0.39c0.28-0.37,0.53-0.75,0.78-1.13c0.45,0.11,1.43-0.16,1.48,0.26c0.94-0.24,1.33-0.59,2.27-0.83 c0.36,0.31,1.47,0.06,2.15,0.12c0.84-0.17,0.99-0.47,1.23-0.75c-1.01-0.61-3.63-0.27-4.59-0.02c-0.05-0.49,0.56-0.24,1.6-0.68 c-0.05-0.42-0.92-0.23-1.78-0.05c1.09-0.45,2.64-0.81,3.21-1.36c-0.23,0.81,3.19-1.43,3.49-0.19c-1.59-0.16-2.43,0.54-4.35,1 c0.05,0.2,0.09,0.39,0.14,0.59c0.88,0,0.65-0.87,1.3-0.46c0.81-0.12-0.35-0.62,0.9-0.67c-0.63,0.45,0.44,0.25,0.81,0.43 c-0.14,0.61-1.17,0.28-1.61,0.68c0.82,0.13,0.72,0.11,1.81,0.2c-0.12,0.35-0.73,0.61-0.47,1.03c0.42-0.25,0.32-0.59,0.86-0.82 c0.75-0.15-0.35,0.47,0.17,0.73c0.52-0.56,1.68-1.04,2.04-0.32c0.07-0.55,1.55-0.83,2.54-1.2c-0.48,0.34-0.22,0.74,0.8,0.43 c-0.59,0.61,0.9,0.89-0.37,1.47c0.04,0.14,0.43,0.02,0.7-0.01c0.95-0.19-0.62-0.87,0.83-0.96c-0.2-0.25-0.8-0.2-0.83-0.58 c1.02-0.13,1.63-0.93,0.54-0.74c0.92-0.58,1.37,0.12,2.3-0.69c0.61,0.2,1.17,0.44,1.85,0.6c0.67,0.15,1.46,0.23,2.52,0.12 c0.15-0.44-0.76-0.14-1.1-0.23c-0.21-0.32,1.55-0.23,0.91-0.65c0.63,0.14,0.03,0.4,0.52,0.81c0.42-0.41,0.97-0.88,1.64-0.5 c0.01-0.44,1.96-1.07,1.68-0.35c1.24-0.16,1.76-0.47,2.28-0.78c-2.56,0.26-2.06-0.65-4.95-0.2c-0.98,0.3,0.39,0.25,0.13,0.59 c-1.05,0.13-1.16-0.41-2.17-0.32c-0.68,0.19,0.06,0.66-0.88,0.8c-1.03,0.31-1.14-0.07-1.17-0.5c1.81-0.2,0.92-1.12,3.17-1.61 c-1.03-0.21,0.52-0.6,0.48-1.02c0.29,0.02,0.58,0.04,1.04-0.06c-0.75,0.55-1.41,1.7-2.43,1.74c1.63,0.75,5.75-0.41,6.36,0.21 c0.62-0.15,0.1-0.54,0.55-0.73c0.27,0.6,1.87,0.25,2.87,0.33c-0.23,0.18-0.29,0.4-0.21,0.66c0.83-0.53,1.97-0.13,2.65-0.7 c-0.1-0.44-2.44,0.72-2.1-0.02c2.2-0.55,2.94,0.04,4.14-0.25c-0.4-0.26,0.03-0.59,1.9-1.01c-0.09-0.11-0.37-0.08-0.4-0.23 c-0.58,0.06-0.61,0.25-0.61,0.44c-0.28,0.03-0.36-0.08-0.7-0.01c0.04-0.14-0.16-0.11-0.37-0.08c1.83-0.67,3.23-0.85,4.66-1 c1.43-0.13,2.87-0.25,4.76-0.85c-0.39-0.27-1.64,0.57-1.77-0.13c2.22-0.16,2.49-0.91,5.06-0.94l-0.06-0.29 c0.49,0.14,0.23,0.62,0.17,0.89c0.39-0.1,0.61-0.08,0.7,0.02c0.27-0.87,2.84-0.19,1.01-0.19c0.38,0.07,0.21,0.52,1.09,0.25 c0.74-0.37,0.45-0.46,0.2-0.8c1.58,0.02,2.03-0.37,1.94-0.82c0.31-0.49,0.43,0.17,0.05,0.3c1.42-0.15,2.05-1.37,0.51-1.01 c0.05-0.17,0.65-0.22,0.62-0.42c0.73,0,1.1,0.25,1.17,0.7c0.66-0.48-0.62-1.02,1.24-0.84c-0.2-0.08-0.4-0.17-0.42-0.38 c-0.27,0-0.74,0.2-0.65,0.27c-0.94-0.69-3.18-0.51-5.56,0.11c0.79-0.53-0.92-0.22-1.46-0.34c0.11-0.3,2.12-1.3,2.03-0.38 c-0.56,0.16-0.66,0-0.73-0.17c-0.98,0.37,0.29,0.56,0.79,0.47c1.07-0.67,4.01-0.6,5.85-0.47c0.85-0.45-1.93-0.45-1.2-0.85 c-3.17,0.8-5.29,0.34-6.92,0.37c-0.88,0.13,0.42-0.34-0.11-0.59c0.4-0.05,0.33,0.22,0.42,0.38c0.45-0.08,0.9-0.17,1.35-0.25 c-0.41-0.11-1.01-0.09-0.81-0.61c2.36-0.54,3.15-0.03,5.5-0.56c0.13,0.79,2.49,0.08,3.54,0.26c-0.4-0.45-1.96-0.11-3.15-0.03 c0.76-0.55,2.24-0.21,3.72-0.68c0.27-0.5-0.8-0.14-1.41-0.06c0.15-0.81,1.64-0.43,2.64-0.91c-0.3,0.25-0.48,0.54-0.92,0.76 c0.91-0.02,2.15,0.35,3.5,0.04c0.06,0.42-0.99-0.2-0.63,0.41c-0.99-0.27-1.66,0.27-2.77,0.15c0.29,0.63,3.38,0.15,4.49-0.28 c-0.64,0.02-1.39-0.55,0.24-0.65c0.01,0.15-0.4,0.18-0.66,0.26c1.18,0.37,1.28-0.62,1.28-0.67c1.4-0.27-0.06,0.71-0.55,0.85 c1.17,0.5,2.15-0.18,4.09-0.52c0-0.33-1.21,0.13-1.72,0.13c0.03-0.18-0.12-0.25-0.39-0.24c1.55-0.66,5.24-0.44,6.79-1.11 c0.95-0.01-0.86,0.42-0.22,0.8c-1.63-0.22-2.49,0.43-3.8,0.16c-0.75,0.28,1.04,0.29,0.82,0.78c2.35-0.42,5.21-0.77,8.23-1.06 c3.03-0.23,6.22-0.39,9.24-0.52c0.5-0.24,0.64-0.58,1.64-0.69c-0.27,0.75,1.23-0.48,1.08,0.3c1.23-0.4,0.76-0.64,2.02-0.44 c1.45-0.91-1.87-0.27-1.18-1.05c-0.41,0.13-0.67,0.29-0.62,0.54c-1.06,0.22-0.96-0.27-1.76-0.21c0.35-0.51,1.33,0.03,1.68-0.39 c-0.86-0.26-3.15-0.31-3.79,0.23c1.43,0,1.07,0.95,1.87,0.95c-1.41,0.67-1.57-0.59-3.48-0.12c1.04-0.34-0.35-0.47,1.3-0.64 c0.08-0.37-1.54,0.3-1.09-0.3c-1.99,0.43-1.08,0.82-1.21,1.23c-1.34,0.4-1.12-0.17-2.09-0.01c-0.31-0.37,0.63-0.39,0.59-0.69 c-1.28,0.32-2.32,0.5-3.51,0.64c-1.18,0.15-2.5,0.31-4.31,0.54c0.81,0.1,0.69,0.2,0.46,0.69c-0.88,0.19-0.35-0.53-1.43-0.23 c0.98-0.38-0.04-0.38,0.56-0.85c0.85,0.02,3.09,0.18,3.71-0.76c1.7,0.37,6.54-1.55,6.86-0.67c4.54-0.82,8.52-1.37,12.82-1.98 c4.31-0.52,8.93-1.09,14.75-2.05c0.02,0.15,0.03,0.3,0.05,0.45c-1.46-0.29-3.41,0.64-5.14,0.46c-0.33,0.05-0.24,0.22-0.31,0.34 c0.6-0.04,2.38,0.04,2.71-0.48c2.12,1.17,7.79,0.45,11.12,0.56c1.2-0.16-0.91-0.47,0.28-0.63c1.31-0.04,0.07,0.56,0.8,0.98 c0.55-0.25,1.1-0.51,2.36-0.53c-1.01-0.12-1.31-0.64-2.48-0.66c0.38-0.25,2.43-0.38,1.74,0.13c1.08-0.03,1.38-0.32,1.66-0.61 c0.69,0.64,1.48-0.56,2.75-0.12c-1.61-0.54,1.1-0.34,1.29-1.03c0.04-0.56-4.87-0.65-6.21,0.15c-0.7,0.02-0.71-0.34-1.41-0.31 c2.69-0.51,6.5-0.45,8.86-1.32c1.15,0.44,3.17,0.39,5.37,0.24c2.2-0.14,4.57-0.3,6.38-0.21c0.8-0.1,0.15-0.68-0.4-0.57 c0.34-0.69,2.4,0.12,2.01-0.76c1.65,0.04,1.84,0.25,3.13,0.21c0.91-0.32,1.59-0.71,1.98-1.21c0.55,0.54-1.66,1.37-2.27,1.98 c0.57,0.43,2.05-0.34,2.41-0.03c-0.37,0.72-2.05,0.13-1.63,1.18c-0.45-0.33-1.85-0.16-1.78-0.77c-0.8,0.06-1.6,0.12-2.4,0.18 c-0.13,0.49,0.66,0.48,0.42,1.02c2.69-0.31,4.89,0.08,5.44-1.01c0.98,0.21,2.15-0.24,2.79,0.39c1.12-0.17,0.45-0.6,0.28-0.92 c1-0.24,2.66-0.23,4.47-0.19c0.17,0.31-0.21,0.41-0.3,0.62c1.05-0.17,0.65-0.14,1.71-0.1c0.23-0.48-0.96-0.24-0.73-0.71 c1.32,0.26,2.76-0.47,3.78-0.06c-0.02-0.35-0.04-0.7-0.06-1.05c1.47,0.37,3.33,1.1,3.2,1.78c0.76,0.04,0.47-0.31,1.01-0.35 c-0.14-0.66-2.39-0.88-1.47-1.58c-0.82-0.15-1.96-0.14-2.78-0.3c0.3-0.43,1.72-0.44,2.72-0.6c0.27,0.51,0.15,0.87,1.11,1.29 c0.91,0,1.12-0.27,1-0.65c-0.36-0.4-0.9,0.27-1.38-0.08c-0.19-0.46,0.7-0.52,1.69-0.54c-0.14,0.48,0.65,0.5,0.4,1.03 c0.51-0.16,0.47-0.51,0.65-0.79c0.64,0.65,2.26,0.82,3.5,1.17c1.01-0.19-0.81-0.18-0.37-0.58c0.62-0.42,1.67,0.25,1.35-0.52 c0.99,0.12,1.84,0.21,2.76,0c-0.74-0.4-2.65-0.21-3.14-0.73c-0.34,0.41-1.8,0.41-2.03,0.86c-0.56-0.26,0.26-0.78-1.4-0.38 c0.34-0.58-0.88-0.38-0.73-0.86c-0.35,0.11-0.34,0.36-1.02,0.35c0.35-0.6-1.24-0.47-0.39-0.88c1.23,0.05,1.26-0.05,2.77,0 c0.06,0.27-0.41,0.34-0.31,0.62c0.31,0.21,0.51-0.07,1.38,0.08c0.46-0.07,0.27-0.39,0.32-0.62c2.06,0.32,4.41-0.06,4.47-0.39 c1.06-0.17,0.44,0.49,1.74,0.21c0.37-0.05,0.22-0.31,0.67-0.32c-0.23-0.19-0.75-0.26-1.39-0.24c0.03-0.34,1.46-0.13,2.06-0.23 c-0.28,0.18-0.44,0.42-0.31,0.76c1.56-0.32,1.57-0.32,2.74-0.54c1.04,0.06-0.31,0.33,0.02,0.6c0.81-0.02,1.01-0.29,2.06-0.22 c-0.01-0.3-0.95-0.16-0.71-0.58c1.07-0.02,1.01-0.49,1-0.94c0.33,0.1,0.53,0.26,0.7,0.43c4.63-0.38,8.93-0.44,12.76-0.68 c3.84-0.15,7.21-0.49,10-1.5c1.13,0.26,0.5,0.73-0.34,0.91c0.98,0.26,2.24-0.64,3.1-0.94c-0.62-0.4-2.22,0.46-2.43-0.42 c1.86,0.37,4.24-0.57,5.88,0.09c-1.93,0.32-3.83,0.54-5.17,1.41c2.41,0.4,4.34,0.57,7.6,0.22c0.1,0.61-0.48-0.02-1.38,0.17 c1.05,0.53,2.72-0.06,3.11,0.88c1.94-0.55-1.03-1.82-2.07-1.49C247.25,2.3,246.91,2.96,247.19,2.05z M291.68,12.84 c0.11,0.53-1.45-0.1-1.74,0.51c1.46,0.2,1.39,0.06,2.72,0.3c0.02-0.3,0.94-0.14,0.71-0.56c-0.26-0.05-0.68-0.04-0.68-0.19 c0.27-0.02,0.4-0.1,0.36-0.28C291.83,12.4,292.74,13.38,291.68,12.84z M124.75,44.54c0.04-0.41-0.75-0.29-1.39-0.26 C123.19,44.84,124.32,44.83,124.75,44.54z M73.6,55.33c0.65-0.09,0.6-0.33,0.91-0.5c0.25,0.26,0.78,0.33,1.13,0.53 c-0.66,0.23-0.99,0.53-1.54,0.78c-0.6-0.18-0.01-0.19-0.12-0.59c-1.66,0.32-0.45,0.83-0.11,1.1c1.72-0.47,2.84-0.68,4.1-1.47 c0.74,0.54-1.25,0.47-0.83,0.94c1.74,0.34,3.41-0.34,5.57-0.92c-0.35-0.48-0.93-0.8-2.16-0.67c-0.55,0.19,0.16,0.7-0.51,0.86 c-0.35-0.2-0.26-0.72-0.83-0.76c-0.84,1.18-3.13-0.58-3.87-0.74c0.12,0.31-1.14,0.31-1.6,0.49C74.07,54.78,73.52,54.98,73.6,55.33z M70.02,49.47c0.66-0.23,2.19-0.26,2.27-0.63C71.63,48.7,70.43,49.15,70.02,49.47z M66.97,43.04c-1.08-0.19-1.6,0.59-1.86,1 c1.32-0.3,2.71-0.16,3.27-0.83C67.07,43.18,65.83,43.95,66.97,43.04z M58.85,43.81c-0.49,0.13-1.23,0.2-1.29,0.42 c0.58-0.06-0.03,0.2,0.1,0.44c1.82,0.18,2.3-0.25,4.36-0.6C61.16,43.4,58.41,44.69,58.85,43.81z M78.36,27.12 c1.21-0.19,2.18,0.11,3.37-0.62c-0.98,0.11-1.15-0.33-2.44-0.01C78.81,26.66,78.51,26.87,78.36,27.12z M234.42,3.7 c0.9,1.43,3.16,0.37,4.49,0.1c0.07-0.28-0.39-0.33-0.35-0.6C237.06,3.31,235.96,3.6,234.42,3.7z M216.51,5.37 c1.1,0.05,1.06-0.32,1.72-0.06c-0.4-0.46-0.17-0.39,0.32-0.76c-1.27,0.3-0.55-0.07-1.73-0.09C217.09,4.91,216.5,5.02,216.51,5.37z M246.16,4.32c2.64-0.19-0.26,0.45,1.38,0.59c0.17-0.18,0.37-0.35,0.69-0.46c0.47,0.34-0.89,0.57,0,0.6c0-0.3,0.94-0.2,0.69-0.61 c-1.03-0.05-2.58-0.64-3.11-0.42C246.08,4.05,246.22,4.15,246.16,4.32z M179.51,9.71c-0.48-0.3-1.81-0.68-2.45-0.42 C177.41,10,178.45,9.38,179.51,9.71z M138.48,14.08c1.04-0.23,0.65-0.19,1.71-0.2C140.38,13.21,138.29,13.58,138.48,14.08z M167.9,11.09c0.69-0.07,1.36-0.13,2.05-0.2C169.95,10.15,167.76,10.37,167.9,11.09z M171.32,10.78c0.96-0.2,0.91,0.14,1.73,0.02 c0.03-0.38-0.57-0.43-1.08-0.52C171.9,10.5,171.42,10.57,171.32,10.78z M173.35,10.33c0.01,0.81,1.41-0.02,2.09,0.29 C175.57,9.92,174.24,10.1,173.35,10.33z M133.21,16.22c-0.04-0.2,0.12-0.35,0.28-0.49c-0.6-0.13-1.2-0.26-2.43,0 c-0.1,0.27,0.55,0.31,0.06,0.45c-0.92,0.03-1.65-0.06-2.44-0.11c0.03,0.2,0.05,0.4,0.08,0.6C130.32,16.64,131.33,16.23,133.21,16.22 z M174.53,12.04c0.2,0.52,1.65,0.37,2.78,0.39c-0.49-0.31,0.84-0.63-0.05-0.6C176.66,12.04,175.77,12.02,174.53,12.04z M36.54,36.26 c-0.81,0.21,0.05,0.5,0.44,0.36c-0.35-0.43,0.63-0.39,0.96-0.38c-0.06-0.2,0.08-0.36,0.23-0.51c-1.21,0.63-1.38,0.03-2.44,0.1 C35.58,36.29,36.46,35.98,36.54,36.26z M278.72,11.44c1.03,0.13,3.09-0.03,2.06-0.38C280.58,11.41,278.57,10.91,278.72,11.44z M45.28,34.56c0.82,0.04,1.39-0.61,2.64-0.76c-0.03-0.15-0.07-0.29-0.1-0.44c-0.64,0.11-0.7,0.34-1.3,0.46 c-0.01-0.08-0.31-0.11-0.33,0.08C47.43,34.02,44.1,34.37,45.28,34.56z M76.03,27.7c-1.23,0.39-1.03-0.19-2.08,0.08 c0.18,1.18-2.51-0.02-2.56,1.14c0.56-0.26,1.51-0.31,2.43-0.43C74.73,28.4,75.61,28.23,76.03,27.7z M43.09,35.68 c0.04-0.13,0.24-0.23,0.63-0.3c0.31-0.59-1.83-0.22-2.07,0.17C42.34,35.44,42.61,35.64,43.09,35.68z M38.2,38.81 c0.48,0.1,2.05-0.2,1.96-0.61c-0.66,0-1.01,0.7-1.33,0.31c0.67-1.03,4.82-0.55,3.89-1.36c-1.84,1.03-2.08-0.62-3.61-0.4 c0.27,0.54,0.34,0.39,0.91,0.87c-0.34,0.08-0.37,0.21-0.63,0.3c-0.25-0.22-0.31-0.57-0.84-0.58c0.04,0.43-1.54,0.55-1.16,1.04 C38.4,38.21,39.18,38.03,38.2,38.81z M44.92,36.03c-1,0.47-1.47,0.1-2.73,0.32C42.23,36.76,44.89,36.71,44.92,36.03z M47.72,36 c-0.03-0.15-0.07-0.29-0.1-0.44c-0.46,0.1-0.71,0.24-0.96,0.38c-0.09-0.16-0.04-0.43-0.43-0.36c0.06,0.2-0.09,0.36-0.23,0.52 C46.81,35.88,47.07,36.09,47.72,36z M48.48,36.29c0.03-0.19,0.35-0.18,0.67-0.15c-0.06-0.2,0.08-0.36,0.23-0.52 c-0.44,0.12-1.35-0.21-1.36,0.16C49.19,35.55,47.56,36.57,48.48,36.29z M162.35,18.13c-0.3,0.54,1.08,0.13,1.73,0.13 C163.91,17.74,163.15,17.96,162.35,18.13z M46.95,37.26c-0.11-0.56-3.38,0.4-2.96,0.84C44.84,37.78,45.87,37.09,46.95,37.26z M44.6,39.19c0.61-0.16,1.09-0.35,1.26-0.6c-0.48,0.07-0.61-0.11-1.06-0.07C44.74,38.75,44.39,38.91,44.6,39.19z M40.06,40.7 c-2.24,0.7-0.58-0.47-1.87-0.5C37.5,41.24,39.35,41.8,40.06,40.7z M55.79,36.15c-0.57,0.21-1.99,0.27-1.96,0.6 C54.97,36.66,55.37,36.85,55.79,36.15z M42.42,40.31c-0.65,0.04-2.95-0.18-2.73,0.32C41.03,40.19,41.93,41.16,42.42,40.31z M42.74,40.23c0.81-0.27,1.3-0.59,1.89-0.9c-0.88,0.2-1.88,0.49-2.36,0.39C42.27,40.02,42.73,39.96,42.74,40.23z M43.63,42.5 c-0.78-0.16-1.38-0.45-2.52-0.34c-0.39,0.6,1.7,0.19,0.54,0.8c-0.43,0.04-0.72-0.03-0.77-0.28c-0.62,0.21-1.41,0.38-1.22,0.74 c1.4-0.31,2.74-0.43,3.81-0.11c-0.87-0.73,0.5-0.35,1.22-0.74c-0.7-0.42-0.65-0.5-0.94-1.02c0.4-0.11,0.77-0.22,0.6-0.44 c-1.1,0.12-0.6,0.54-1.23,0.74c-0.03-0.23-0.99,0.12-0.33,0.08C43.15,41.96,44.22,42.32,43.63,42.5z M50.64,41.19 c-0.25,0.09-0.65,0.16-0.63,0.3c0.44-0.1,0.88-0.2,1.32-0.3c0.18-0.5-1.11-0.74-1.46-0.28C50.35,40.83,50.33,41.14,50.64,41.19z M63.52,39.77c-0.47,0.06-0.45-0.24-0.76-0.3c-0.88,0.18-1.97,0.32-1.93,0.71c0.89-0.13,1.24,0.13,2.08,0.03 c0.05-0.13-0.05-0.29,0.27-0.36C63.21,39.92,63.5,39.95,63.52,39.77z M75.86,37.52c0.77-0.07,1.93-0.74,0.89-0.77 c-0.4,0.77-0.83-0.15-2.02,0.24C74.56,37.53,76.1,36.89,75.86,37.52z M68.62,39.32c-0.23-0.38,1.83-0.26,1.6-0.64 c-2.02-0.2-2.63,0.49-5.37,0.81C66.05,40.19,68.78,38.33,68.62,39.32z M289.21,22.04c0.01-0.2,0.02-0.4,0.03-0.6 c-0.34-0.02-0.67-0.04-1.01-0.05C287.91,21.85,288.72,21.88,289.21,22.04z M48.27,44.51c1.45-0.4,0.42-0.42,0.82-0.96 C48.16,43.74,48.22,44.13,48.27,44.51z M48.1,43.78c-0.79,0.39-0.96-0.49-1.36,0.16c1.35-0.12-0.03,0.83,0.9,0.87 C47.84,44.48,48.07,44.15,48.1,43.78z M49.52,43.92c0.04,0.08,0.09,0.16,0.36,0.07c0.05-0.28,1.19-0.07,0.89-0.67l-1.32,0.3 L49.52,43.92z M287.18,22.09c-0.47,0.18-0.55,0.72,0.3,0.76c-0.03-0.6,2.31-0.25,0.72-0.87C287.99,22.28,287.66,22.27,287.18,22.09z M56.64,43.2c-0.03-0.29,1.07-0.34,0.89-0.65c-0.62-0.01-0.93-0.23-2.05,0.15C55.44,43.19,56.03,43.2,56.64,43.2z M60.91,42.15 c0.69-0.32,2.13-0.47,2.22-0.92c-1.76,0.56-1.75,0.35-3.35,0.54C59.43,42.43,61.28,41.49,60.91,42.15z M67.14,40.55 c-0.04-0.19-0.95,0-0.99,0.21c0.78,0.13,2.34-0.43,2.59-0.84C67.64,40.29,67.73,40.06,67.14,40.55z M76.42,38.63 c0.65-0.03,2-0.06,2.63-0.64C77.76,38.42,76.54,38.05,76.42,38.63z M288.4,25c-0.35-0.63,1.07-0.69,1.71-0.36 c-0.34-0.56-0.97-1-1.29-1.57C288.44,23.6,287.06,24.51,288.4,25z M75.99,39.94c1.14-0.17,2.67-0.62,3.35-0.47 c-0.71-0.46-3.01,0.17-3.83-0.2C75.32,39.74,76.06,39.55,75.99,39.94z M45.28,46.59c1.02-0.14,1.07,0.45,1.85,0.5 c-0.05-0.24,0.89-0.29,0.92-0.52c-0.44-0.13-1.03-0.14-1.16-0.5c0.39-0.07,0.81,0.09,0.99-0.23c-0.79,0.13-0.73-0.37-1.75-0.06 C46.1,46.1,45.56,46.32,45.28,46.59z M67.99,41.3c0.37-0.57-2.06,0.04-2.01,0.26C66.81,41.54,66.69,41.46,67.99,41.3z M54.99,45.12 c-1.87,0.43-4.22,0.32-5.36,0.77C50.48,46.02,53.42,45.7,54.99,45.12z M64.5,42.79c0.32,0.3,0.41,0.66-0.11,1.1 c-0.43-0.33-1.33,0.06-1.62,0.49c1.93-0.19,2.13-0.75,2.85-1.2c0.36-0.46-1.4-0.19-0.46-0.52c1.12-0.4,1.62,0.51,2.37-0.19 C66.45,42.64,65.66,42.04,64.5,42.79z M55.29,44.9c-0.08,0.95,2.92-0.46,1.61-0.52C56.48,44.83,56.15,44.78,55.29,44.9z M56.2,45.92 c-0.18-0.44-2.31-0.31-3.06,0.24C53.99,46.22,54.8,46.29,56.2,45.92z M162.12,29.78c0.1,0.37-0.72,0.43-0.95,0.69l-0.06-0.6 c-1.54,0.16-1.34,0.64-2.03,0.04c-0.37,0.26-0.22,0.7-1.28,0.73c0.16-0.41-0.19-0.52-1.05-0.35c0.83,0.77,2.88,0.39,4.04-0.24 c-0.59,0.55,0.61,0.83,1.38,0.32c0,0.19-0.41,0.25-0.29,0.48c0.45-0.33,4.66-0.26,4.3-1.02c-0.73,0.32-2.74,0.46-1.7-0.14 C163.4,29.89,162.91,29.75,162.12,29.78z M166.13,29.23c-2.96,0.06-4.11-0.18-6.06,0.29c0.23-0.72-1.1,0.21-1.04-0.2 c-0.02-0.25,0.93-0.17,0.98-0.4c-1.69,0.02-1.38,0.61-2.67,0.41C159.12,29.76,165.06,29.94,166.13,29.23z M120.95,34.61 c-0.08-0.29-1.27-0.69-1.73-0.21C120.08,34.29,119.66,34.98,120.95,34.61z M121.62,34.51c1.57-0.29,0.51,0.06,0.75,0.5 c1.67-0.4,1.47,0.38,2.12,0.61c0.51-0.25,0.98-0.73,1.63-0.53c-0.26,0.3-0.74,0.55-0.89,0.89c1-0.09,0.93,0.49,2.39,0.12 c0.35-0.54-1.1,0.04-0.75-0.5c0.45,0.14,1.66,0,1.65-0.38c-1.79,0.06-3.69-0.29-2.54-1.16c-0.86,0.1-1.6,0.14-2.04-0.02 c0.63-0.15,1.43-0.26,1.27-0.64c-1.45,0.29-1.76,0.73-3.01,0.42C122.06,34.07,121.76,34.27,121.62,34.51z M130.24,32.84 c-0.83,0.13-1,0.42-1.67,0.24c0.36,0.23-0.93,0.64,0.08,0.6c0.34-0.51,1.46-0.19,1.06,0.3c1.29-0.36,1.23-0.21,2.65-0.53 C132.11,32.75,129.34,33.42,130.24,32.84z M153.05,30.51c-0.04,0.29,0.41,0.29,0.4,0.57c0.58-0.2,1.67-0.21,1.98-0.5 C154.73,30.49,153.98,30,153.05,30.51z M136.43,33.39c0.07-0.67,0.74,0.2,1.65-0.35c-0.07-0.49-1.02-0.46-2.08-0.36 C136.21,32.88,135.71,33.5,136.43,33.39z M96.77,39.17c0.47-0.04,0.43,0.26,0.74,0.34c0.66-0.04,1.63-0.68,0.92-0.61 C98.43,39.35,97.09,38.51,96.77,39.17z M118.75,35.83c-1.14,0.37-2.19-0.11-2.67,0.38C116.91,36.36,118.05,36.32,118.75,35.83z M79.69,43.07c0.25-0.48,0.93,0.05,1.29-0.39c0.48,0.01,0.16,0.56,0.78,0.47c0.04-0.25,0.71-0.24,0.99-0.18 c0.15-0.55-1.38,0.06-1.13-0.55C80.48,42.56,78.83,42.74,79.69,43.07z M85.1,42.68c-0.6-0.78-1.45-0.5-2.84-0.54 C82.91,42.52,84.01,42.6,85.1,42.68z M120.21,36.53c0.81-0.41,1.55-0.06,1.97-0.43c-1.06-0.03-1.65,0.05-0.75-0.5 c-0.22,0.03-0.45,0.06-0.66,0.09c-0.2,0.04-0.39,0.08-0.32,0.2C121.46,35.88,119.72,36.22,120.21,36.53z M287.25,28.11 c0.96-0.08,0.86,0.25,1.67,0.23c0.32-0.25,0.84-0.39,1.05-0.7c-0.63-0.07-0.75,0.13-1.35,0.08c-0.47-0.06-0.55-0.28-0.99-0.36 C287.34,27.53,287.16,27.76,287.25,28.11z M107.53,38.18c0,0.55,1.38,0.19,1.47,0.67c1.24-0.22,0.92-0.32,1.99-0.32 c0.1,0.37,0.3,0.68,0.8,0.78c1.04-0.1,2.39-0.04,3.65-0.58c-0.06-1.11-3.34,0.58-3.19-0.86c-1.52,0.61-1.29,0.41-1.71-0.03 C110.18,38.64,108.55,37.44,107.53,38.18z M121.4,40.01c-0.41,0.04-0.79,0.07-0.71-0.2c-2.64,0.67-4.6,0.27-6.37,0.46 c-0.09,0.49,0.68,0.43,0.49,0.98c0.82,0.11,1.97,0.05,3.05,0.01c0.21-0.46-0.53-0.32-0.44-0.7c0.48-0.01,0.58,0.1,1-0.14 c1.71,0.85,5.74,0.7,7.8,0.11c-1.12,0.16-1.79,0.04-2.38-0.12c0.97-0.33,1.45-1.29,1.1-1.82c0.4-0.26,1.54-0.43,1.99-0.28 c0.48-0.67,0.5-0.53-0.14-1.04c0.25-0.07,0.65-0.1,0.65-0.24c-1.77,0.64-2.99,0.03-4.35,0.46c-0.02,0.23,0.2,0.53-0.24,0.64 c-0.23,0.03-0.44,0.06-0.67,0.09c-0.35-0.44,0.46-0.53,0.56-0.84c-1.09,0.02-0.64,0.48-1.27,0.63c-0.89-0.76-2.43-0.28-2.88-1.11 c-1.42,0.22-1.62,0.78-2.35,0.18c0.52-0.09,1.16-0.14,0.95-0.44c-1.92,0.48-1.9,0.64-2.51,1.42c1.17-0.05,1.25-0.4,2.31-0.48 c0.05,0.19,0.46,0.15,0.4,0.4c-0.77-0.22-0.71,0.14-0.6,0.54c1.04-0.03,0.58-0.5,1.62-0.53l0.09,0.59c-1.34,0.3-2.58,0.62-3.87,1.32 c1.82-0.41,2.54-0.22,3.61-0.83c0.33,0.68,1.63,0.2,3.06,0.03c0.23,0.35,0.14,0.72,0.83,1.09c-0.42,0.07-0.43,0.26-0.98,0.29 C120.23,40.03,121.65,40.6,121.4,40.01z M136.27,34.77c0.78-0.19,1.53-0.39,1.59-0.79c-0.78,0.1-1.02-0.14-2.02,0.09 C135.77,34.43,135.96,34.64,136.27,34.77z M148.9,32.81c0.26,0,0.66-0.07,0.68,0.07c-0.46,0.28-0.2,0.5,0.72,0.37l-0.08-0.75 C149.38,32.59,149.14,32.35,148.9,32.81z M86.39,42.29c0.91,0.11,0.99-0.25,2.01-0.22C88.36,41.63,86.36,41.82,86.39,42.29z M53.18,49.39c-1.07,0.13-1.75-0.05-3.05,0.24C50.44,49.99,52.81,49.66,53.18,49.39z M127.95,36.05c0.51,0.22,1.65,0.04,2.39,0.12 c-0.39-0.49,1.48-0.33,1.25-0.78c-0.81-0.04-1.67-0.03-2.71,0.08C129.48,35.91,127.77,35.71,127.95,36.05z M140.66,34.7 c-0.18-0.34,0.57-0.4,0.24-0.78C139.54,33.99,139.91,34.66,140.66,34.7z M99.43,40.72c1.46-0.37,2.37-0.03,1.23-0.81 c-0.44,0.07-0.88,0.14-1.33,0.22C99.36,40.32,99.39,40.52,99.43,40.72z M132.67,35.84c0.27-0.03,0.8,0.03,1.28-0.03 c0.49-0.05,0.92-0.21,0.99-0.72c-0.42-0.13-1.2-0.03-2.02,0.11C133,35.38,131.88,35.91,132.67,35.84z M136.59,37.31 c1.16-0.78,2.15,0.52,3.34-0.25c-1.06-0.32-2.26-0.57-2.22-1.55c-0.97,0.15-1.07-0.21-2.04-0.06c-0.07,0.28-1.69,0.79-0.55,0.97 C135,36.24,135.99,37,136.59,37.31z M81.72,44.68c-0.02-0.1-0.04-0.2-0.06-0.29c-0.33,0.06-0.42-0.05-0.69-0.03 c-0.05,0.13,0.04,0.29-0.27,0.36c-0.1-0.1-0.07-0.29-0.39-0.23C79.63,44.94,80.64,44.97,81.72,44.68z M99.58,41.61 c0.47-0.16,1.74-0.11,1.63-0.42c-0.66,0.11-0.49-0.33-1.38-0.08C99.88,41.31,99.74,41.46,99.58,41.61z M79.49,45.56 c-0.11-0.4,0.49-0.4-0.11-0.59C78.08,45.09,78.24,45.91,79.49,45.56z M106.18,40.38c0.57,0.53,1.22-0.24,2.37-0.08 c0.22-0.53-1.11-0.03-1.4-0.23C107.02,40.4,106.69,40.46,106.18,40.38z M178.57,32.54c0.61-0.26,1.46-0.45,1.26-1 c-0.63,0.08-0.75-0.11-1.35-0.05c-0.27,0.19-0.41,0.43-0.28,0.77c0.27,0.01,0.66-0.05,0.68,0.1C178.18,32.34,178.23,33,178.57,32.54 z M182.64,32.98c-1.98-0.12-2.02,1.31-0.9,1.42c-0.09,0.21-0.46,0.32-0.29,0.63c-0.42,0.02-0.47-0.16-1.01-0.08 c0.03,0.21-0.13,0.34-0.3,0.47c1.15,0.15,3.57-0.31,3.96-0.9c-0.85,0.18-1.52,0.34-2.01,0c0.92-0.19,2.23-0.32,0.97-0.52 c1.46-0.03,3.5-0.07,2.98-0.53c-0.04,0.18-0.51,0.2-0.99,0.22c0.24-0.45-0.5-0.35-0.39-0.72c0.29-0.07,1.68-0.43,0.63-0.5 c-0.05,0.23-0.8,0.2-1.33,0.25c0.48-0.57-1.14,0-1.04-0.37c0.56-0.29,1.15-0.56,1.62-0.88c0.63-0.03,0.26,0.48,1.04,0.37 c0.39-0.35,2.01-0.25,2.31-0.63c-2.19,0.14-2.59,0.09-4.7,0.05c0.95,0.6-0.84,0.78-1.25,1.3c0.3-0.53-1.05-0.16-1.69-0.17 c0.62,0.46,0.14,0.64-0.6,0.95c1.46,0.09,1.03-0.5,1.63-0.72C182.1,32.55,182.33,32.79,182.64,32.98z M286.84,30.05 c1.22,0.16,0.38,0.75,0.29,1.06c1.08-0.12,1.71-0.45,2.06-0.94c-0.87-0.38-1.11-0.45-1.99-0.56 C287.2,29.81,287.02,29.93,286.84,30.05z M126.99,38.91c0.01-0.33-0.34-0.44-1.06-0.31c0.18,0.34-0.57,0.41-0.23,0.79 c1-0.25,1.23-0.02,2.01-0.13c0.44-0.59,0.41-1.31,1.8-1.62c1.07-0.08,1.09,0.5,2.1,0.46c0.97-0.93-1.19-1.3-3.17-0.92 C127.53,37.64,128.27,38.57,126.99,38.91z M94.09,43.31c0.07-0.22,0.42-0.37,0.23-0.65c-0.33,0.06-0.66,0.12-0.99,0.18 c0.05,0.2-0.1,0.35-0.25,0.5c0.58-0.05,0.8-0.38,0.99-0.18C93.88,43.19,93.71,43.35,94.09,43.31z M112.62,40.24 c0.04-0.32,1.46-0.28,1.25-0.66C113.19,39.23,111.39,40.12,112.62,40.24z M189.27,31.73c-0.17-0.4,1.24-0.23,1.3-0.55 c-0.79,0.06-1-0.19-2.02,0C188.62,31.45,188.81,31.66,189.27,31.73z M95.76,43.15c0.43-0.79,0.93,0.07,2.01-0.19 c-0.05-0.57-1.43-0.27-2.11-0.4C95.58,42.67,94.94,43.28,95.76,43.15z M83.4,46.36c-0.16-0.33-0.76-0.49-0.17-0.88 c-1.22,0.54-0.58-0.12-2,0.22c0.3,0.59-1.2,0.74-1.12,1.28c0.78-0.21,0.77,0.14,1.67-0.16c0.38-0.65-1.48,0.24-1.1-0.41 C81.85,46.21,81.98,46.73,83.4,46.36z M85.1,46.35c0.32-0.2,0.93-1.24-0.88-1.06c-0.31,0.35-0.29,0.78-0.46,1.15 c0.63-0.08,0.7-0.3,1.29-0.39C85.06,46.15,85.08,46.25,85.1,46.35z M98.23,43.65c0.8-0.43,1.55-0.09,1.96-0.47 c-0.99,0.03,0.37-0.44-0.13-0.74C99.09,42.75,98.47,43.15,98.23,43.65z M112.66,40.54c-0.04,0.41,0.75,0.27,1.39,0.23 C114.22,40.2,113.09,40.24,112.66,40.54z M86.69,47.59c0.57-0.4-0.03-0.38-0.14-0.74c-1.25,0.61-1.28,0.34-2.96,0.55 c-0.08-0.16-0.02-0.43-0.41-0.38c-0.04,0.18-0.32,0.3-0.6,0.42c-0.03-0.15-0.06-0.3-0.08-0.44c-0.65,0.07-0.61,0.32-0.93,0.48 c0.24-0.66-1.36-0.25-2.03,0.07c1.72-0.17,0.39,0.6,0.2,1.03c1.54-0.05,2.29-0.39,2.88-0.99C84.25,47.46,84.94,47.52,86.69,47.59z M128.65,41.11c-0.89-0.27-1.33,0.22-1.61,0.53c-0.36-0.3-1.51-0.53-3.11-0.47c0.04,0.25,0.07,0.5,0.11,0.74 c2.58-0.22,3.75,0.44,5.19,0.94c-0.46-0.94,0.42-1.43,1.47-1.57c-0.14-0.5-0.96-0.58-1.16-1.05c-2.18,0.35-2.47-0.49-4.12-0.48 C124.95,40.65,128.01,40.4,128.65,41.11z M78.03,48.58c0.66-0.07,0.62-0.32,0.93-0.48c0.1,0.1,0.06,0.29,0.39,0.23 c0.56-0.37-0.17-0.44-0.77-0.47C78.63,48.16,77.71,48.22,78.03,48.58z M89.93,46.68c0.19-0.44,1.61,0.04,1.59-0.6 c-0.96,0.22-1.07-0.15-2.03,0.07C89.59,46.36,89.47,46.72,89.93,46.68z M273.33,32.92c-0.9-0.16,0.59-0.4,1.34-0.26 c0.11-0.34-0.06-0.57-0.65-0.62c-0.05,1.02-4.5-0.26-3.7,0.63C271.56,32.25,272.6,33.08,273.33,32.92z M72.16,49.94 c0.68-0.5,0.61,0.27,0.12,0.59c0.96-0.17,2.35,0.2,2.26-0.62c-0.84,0.15-1.31,0.05-1.43-0.32c0.18-0.04,0.35-0.2-0.03-0.15 C73.01,49.74,71.2,49.73,72.16,49.94z M122.36,42c0.44-0.06,0.88-0.12,1.32-0.19c-0.44-1.13-2.84-0.3-4.46-0.43 c-0.36,0.28-1.35,0.37-1.24,0.78c1.12,0.31,1.35-0.45,2.63-0.52c0.02,0.15,0.04,0.3,0.07,0.45C122.02,42.01,122.89,41.06,122.36,42z M281.68,33.19c-1.02,0.08-1.21-0.19-1.99-0.21c-0.43,0.47,1.08,0.15,0.65,0.62c-0.78-0.13-2.11-0.41-2.02,0.23 c0.48,0.1,1.73-0.12,1.66,0.2c-0.05,0.17,0.04,0.43-0.34,0.44c-2.44-0.2-5.28,0.72-7.04,0.97c3.27-0.09,5.48-0.64,7.7-0.8 c-0.04,0.24-0.85,0.09-0.68,0.43c2.16,0.22,0.29-0.6,1.69-0.7c2.71,0.63-2.81,1.13-0.74,1.93c-0.78,0.03-1.44,0.11-1.68,0.4 c1.9-0.11,2.55-0.67,3.7-0.78c-0.41-0.03-0.79-0.07-0.66-0.32c0.46,0.01,0.73,0.1,0.99,0.18c0.63-0.56,2.08-1.53,1.42-2.21 c-0.71,0.7-0.28-0.23-1.33-0.19c0.27,0.49-0.53,0.45-1.02,0.57c-0.31-0.29,1.02-0.47,0.02-0.6c-0.38,0.18-0.86,1.09-1.36,0.71 C280.96,33.75,281.68,33.65,281.68,33.19z M76.06,50.67c0.97-0.33,2.38-1.06,3.58-0.86c-0.39-0.4-1.64-0.22-2.74-0.08 C77.35,50.21,75.71,50.22,76.06,50.67z M229.55,33.37c-0.07,0.22-0.54,0.27-0.66,0.47c0.45-0.01,0.89-0.04,1.33-0.04 c-0.03-0.26,0.06-0.47,0.32-0.6c-0.49,0.08-1.73-0.13-1.67,0.19C229.11,33.38,229.33,33.37,229.55,33.37z M275.98,33.91 c-0.04,0.41,0.54,0.32-0.02,0.6c1.05,0.11,0.77-0.44,2.01-0.23c-0.12-0.52-0.9-0.22-0.31-0.76 C276.42,33.31,277.11,34.06,275.98,33.91z M267.62,34.1c0.13,0.26-0.5,0.38-0.01,0.45c0.26-0.37,1-0.02,0.33,0.15 c2.83-0.04,4.53-0.62,7.69-0.51c0.45-0.58-0.9-0.42-1.32-0.64C272.11,34.56,269.93,34.32,267.62,34.1z M266.29,33.78 c-0.42-0.21-1.58-0.11-2-0.32C263.59,34.08,266.1,34.04,266.29,33.78z M181.92,36.81c0.25-0.05,0.65-0.05,0.65-0.2 c-2.17,0.25-3.41-0.39-4.64,0.5c1.41-0.22,2.48,0.38,1.42,1.1C181.47,38.56,182.49,37.35,181.92,36.81z M85.28,50.91 c0.38-0.43,0.39-0.94,0.76-1.36c-0.99,0.3-0.71-0.29-1.69,0.01C85.86,49.84,83.88,50.63,85.28,50.91z M183.29,37.3 c1.28-0.02,1.75-0.34,1.95-0.75c-0.46,0.04-0.73-0.02-1.01-0.07C184.52,36.97,182.9,36.77,183.29,37.3z M73.35,52.46 c-0.23,0.57,1.06,0.02,1.69-0.04C74.97,51.81,74.13,52.2,73.35,52.46z M126.71,44.12c0.99-0.15,2.47,0.21,2.64-0.37 c-0.39,0.03-0.39-0.19-0.39-0.4c-1.04,0.28-1.27,0.05-1.69-0.07C126.91,43.51,126.35,43.68,126.71,44.12z M181.52,40.3 c-0.2,0.01-0.39,0.01-0.34-0.13c0.95,0.05,0.84-0.28,1.65-0.27c0.18,0.16,0.38,0.31,0.69,0.4c0.02-0.38,1.12-0.13,1.33-0.1 c0.25-0.6,0.75-0.42,1.97-0.45c-0.03-1.25,4.43-1.14,3.96-0.6c0.75-0.21,1.52-0.42,1.61-0.87c-1,0.01-2,0.57-2.34,0.02 c1.21-0.16,1.13-1.75-0.08-1.2c0.81,0.07,0.2,0.84-0.27,0.92c-0.87-0.59-1.49-0.61-3.4-0.8c0.05,0.49,1.67,0.14,1.4,0.8 c-1.92,0.14,0.98,0.53-0.28,0.77c-0.91,0.13-0.35-0.53-1.04-0.52c-0.08,0.6-1.01,0.9-1.57,1.33c-0.24-0.58-1.02-1.04-1.73-0.92 c0.24-0.35,1.55-0.31,1.61-0.72c-1.02,0.24-1.05,0.23-1.03-0.38c-0.81,0-0.71,0.33-1.65,0.28c0.4,0.53-0.8,0.49-0.6,0.95 c0.22,0.4,0.87,0.56,1.07,0.97C180.86,39.64,180.55,40.72,181.52,40.3z M199.04,38.22c1.99-0.19,0.19-0.7-0.06-1.05 c-0.79,0.23-1.34,0.56-2.29,0.73c1.1,0.2,1.46-0.16,2.31-0.43C199.64,37.73,199.06,37.85,199.04,38.22z M260.58,36.73 c-0.51-0.54,1.13-0.08,1.01-0.44c-2.11-0.22-3.26-0.08-4.33-0.35C257.45,36.85,259.11,36.29,260.58,36.73z M215.31,36.99 c0.32,0.16,0.91,0.96,1.68,0.4c-1.01-0.01,1.15-0.67-0.03-0.75C216.61,37.16,215.67,36.63,215.31,36.99z M250.92,37.82 c-0.14-0.22,2.15-0.6,3-0.87c-0.21,0.4-1.39,0.36-1.33,0.89c1.19,0.09,1.92,0.27,2.99,0.03c0.12-0.84-1.99-1.22-3.32-1.84 c0.05,0.43-2.05-0.15-2,0.28c1.05-0.06,0.94,0.39,1.33,0.62c-1.8-0.21-3.01-0.01-4-0.31c0.02,0.66,2.04,0.7,2.66,0.3 C249.91,37.33,249.94,38.2,250.92,37.82z M270.56,36.89c-0.43-0.17-1.22-0.19-1.65-0.35c-0.82,0.17,0.35,0.57-0.35,0.59 c-0.75-0.24-1.81-0.15-0.65-0.47c-1.52,0.18-2.33,0.1-3.33,0.27c1.13,0.69-1.31,0.32-1.34,0.74c1.25,0.11,3.05,0.06,4.51-0.1 c1.46-0.13,2.59-0.36,2.49-0.69C270.22,36.96,270.49,37.06,270.56,36.89z M264.24,36.61c-0.38-0.13-0.89-0.21-1.66-0.17 c-0.96,0.66,0.44,0.58-1.01,0.89C262.35,37.85,264.22,37.34,264.24,36.61z M88.91,52.22c1.05-0.12,0.66-0.59,1.91-0.66 c-0.73-0.23,0.55-0.82-0.79-0.62C90.33,51.53,88.83,51.68,88.91,52.22z M192.75,38.87c0.45-0.03,0.73,0.03,1,0.1 c-0.13-0.34,0.02-0.58,0.28-0.77C193.2,38.26,192.77,38.48,192.75,38.87z M242.94,37.12c1.08-0.16,2.04,0.53,3,0.87 c0.08-0.42,1.88-0.07,1.66-0.62c-1.59,0.08-2.41-0.19-3.33-0.42c0.66,0.04,0.66-0.21,1-0.31c0.94-0.13,0.86,0.2,1.66,0.13 C246.3,36.07,243.29,36.72,242.94,37.12z M78.77,54.1c1.21,0.58,3.62-1.1,1.79-1.25C80.68,53.44,79.12,53.62,78.77,54.1z M239.61,36.86c0,0.2,0,0.4,0.01,0.6c0.98-0.17,2.65-0.03,2.99-0.48c-0.4-0.03-0.21-0.16,0-0.3 C241.56,36.72,240.16,36.6,239.61,36.86z M208.68,37.7c-0.66,0.04-1.33,0.07-1.99,0.11c-0.09,0.3,0.46,0.28,0.68,0.42 c-0.4,0.04-0.79,0.09-0.65,0.34C207.72,38.41,208.63,38.22,208.68,37.7z M232.63,37.23c2.04,0.34,3.85,0.51,6.32-0.07 c-0.68-0.3-0.65,0.07-1.33,0.17c-0.02-0.21,0.15-0.33,0.33-0.46c-1.07-0.12-0.69,0.4-1.32,0.47c0.01-0.26-0.26-0.38-0.67-0.44 C235.48,37.62,233.12,36.75,232.63,37.23z M257.25,37.14c-0.1,0.31-1.47,0.02-1.34,0.44c0.4,0.03,0.2,0.17,0,0.3 c0.46,0,0.73,0.08,1,0.16C256.96,37.8,258.03,37.28,257.25,37.14z M258.9,37.61c-0.06-0.33-0.95-1.06-1.65-0.62 C258,37.11,257.97,37.57,258.9,37.61z M261.24,37.19c-0.4-0.04-0.2-0.17,0-0.3c-0.69,0.08-2.18-0.21-2.33,0.13 c0.39,0.03,0.36,0.24,0.33,0.46c0.46,0,0.73,0.08,1,0.16c0.16-0.18,0.36-0.34,0.67-0.44C260.9,37.27,261.17,37.35,261.24,37.19z M230.32,37.86c-0.26-0.03-0.39-0.12-0.34-0.3c-0.72,0.3-2.72,0.06-3.32,0.41c2.81-0.03-1.11,0.62-0.32,0.61 c1.83,0.2,2.08-0.94,2.98-0.25C229.16,37.7,230.22,38.11,230.32,37.86z M82.84,54.11c-0.2,0.03-0.39,0.05-0.36-0.09 c0.59-0.09,0.74-0.29,0.57-0.56c-0.43,0.08-0.87,0.16-1.31,0.24C81.78,53.97,82.62,54.52,82.84,54.11z M196.48,39.87 c0.74-0.15,1.1,0.64,1.66,0.06c-0.76-0.07-1.63-0.89-2.68-0.31C196.37,39.55,197.17,39.5,196.48,39.87z M187.52,40.3 c-0.48,0.49,1.74,0.27,1.67,0.02C188.59,40.24,188.18,39.92,187.52,40.3z M221.03,38.76c0.29,0.32,1.26,0.29,1.35,0.71 c-1.02-0.08-1.2,0.19-1.99,0.21c-0.03,0.37-0.04,0.73,0.69,0.73c-0.52-0.69,2.3,0.12,1.32-0.34c-0.59,0.04-0.78-0.13-0.68-0.43 c1.69-0.09,3.6-0.09,4.3-0.59c-0.8-0.07-1.53-0.17-2.66-0.06c0.08-0.22,0.54-0.27,0.65-0.47c-0.58-0.02-1.64,0.48-1.99,0.07 c0.19-0.01,0.37-0.13,0-0.15C222.02,38.67,221.1,38.54,221.03,38.76z M183.29,41.67c-0.53-0.04-1.82-0.44-2.33,0.03 c1.79,0.39,3.33-0.07,5.31-0.25c-0.26-0.42-1.15-0.36-0.05-0.75c-0.92,0.06-1.73-0.42-2.31,0.33c0.82-0.08,1.02-0.37,1.34,0.05 c-1.35,0.88-1.55-0.42-3.03-0.38C182.13,41.27,183.59,40.99,183.29,41.67z M197.17,40.43c-1.24,0.18-0.28-0.78-1.69-0.51 C195.37,40.46,196.72,41.12,197.17,40.43z M218.38,38.99c-0.04,0.43,0.95,0.35,1.35,0.56c0.12-0.22,0.39-0.27-0.01-0.45 c0.93,0.17,1.12-0.63,0.66-0.17C219.22,38.84,218.98,39.25,218.38,38.99z M212.07,39.2c-0.04,0.18,0.07,0.42-0.31,0.46 c-0.02-0.09-0.06-0.18-0.34-0.14c-0.21,0.41,0.7,0.27,1.02,0.42c-0.3-0.3,1.07-0.6,0.98-0.33c-0.33,0.36-1.47,0.83-2.3,0.53 c0.18,0.53,2.1,0.1,1.03,0.87c0.88-0.13,1.68-0.29,2.3-0.53c-2.69,0.17-0.53-0.8-0.04-1.05C213.03,39.33,213.16,39.44,212.07,39.2z M194.57,41.33c0.26,0.02,0.39,0.11,0.35,0.28c0.75-0.11,1.67-0.39,2.32-0.13c-0.46-0.24-1.66-0.87-2.35-0.48 C195.48,41.05,194.75,41.18,194.57,41.33z M200.53,41c0.39,0.11,0.9,0.15,1.66,0.06c-0.03-0.2,0.14-0.34,0.31-0.47 C201.55,40.62,200.82,40.72,200.53,41z M273.14,39.98c0.27,0.49-0.54,0.45-0.68,0.73c1.43,0.04,2.19-0.24,3.33-0.34 c-0.96-0.11,0.51-0.22,0.35-0.44C275.08,39.45,274.45,40.11,273.14,39.98z M245.95,40.54c-1.61,0.14-3.17,0.3-4.3,0.65 c1.12-0.07,0.53,0.66,1.99,0.43c0.31-0.28-1-0.49,0-0.6c0.76,0.35,2.86,0.87,4.3,0.4c-0.43,0-0.42-0.41,0-0.45 c3.86-0.11,9.36,0.61,12.58,0.11c-4.76-0.48-8.99-0.2-11.92-0.42c-0.06,0,0.3-0.3,0.33-0.3c-1.02-0.1-0.4,0.52-1.66,0.32 c1.47-0.39-0.36-0.35-0.99-0.59c2-0.23,4.84-0.34,0.66-0.31c-0.42-0.01-0.46-0.19-1-0.14C245.34,39.91,244.95,40.36,245.95,40.54z M215.49,41.49c-1.03,0.11-1.2-0.34-0.69-0.58c-0.84,0.05-1.7,0.08-1.64,0.5C214.01,41.32,215.06,41.89,215.49,41.49z M213.19,42.17 c-1.24-0.08-2.35-0.11-2.29,0.68c1.49-0.19,1.54,0.2,0.68,0.42c0.87-0.4,3.53,0.38,3.62-0.57C213.46,42.62,211.93,42.6,213.19,42.17 z M215.18,42.25c-0.01,0.38,1.69,0.68,2,0.39c-0.85,0.01-0.5-0.57-1.34-0.56C215.77,42.2,215.57,42.27,215.18,42.25z M31.93,43.3 c-0.05,0.54,1.33,0.29,0.95,1c0.29,0.06,2.32-0.66,2.15,0.23c-0.39,0.07-0.58,0.18-0.62,0.31c-1.07-0.39-4.21,0.86-4.57-0.08 c-0.7,0.49-0.24,0.49-1.5,1c-2.03-0.55-0.87-1.54-1.91-2c0.39-0.07,0.58-0.18,0.62-0.31c1.48,0.06,1.12-0.43,2.9-1.04 c-0.02,0.37-0.39,0.68-0.08,1.1c0.43-0.7,1.54-0.71,0.73,0.13c-0.53-0.11-1.75,0.32-1.79-0.17c-0.25,0.15-0.5,0.29-0.95,0.4 c0.69,0.12,0.13,0.36,0.18,0.73c0.3-0.23,0.59-0.46,0.88-0.69c0.7-0.06,1.46,0.1,0.84,0.56c0.88-0.13,1.17-0.36,0.88-0.68 c1.19-0.18,0.51,0.41,0.18,0.73c0.55-0.02,0.61,0.34,1.43,0.1C32.91,44.27,31.03,43.87,31.93,43.3z M48.02,47.96 c-0.66,0.24-2.2,0.32-2.27,0.68c-0.82,0.17-0.21-0.48-0.14-0.59c-0.66,0.29-0.86,0.67-1.87,0.89c0.64-0.46-0.19-0.62-0.36-0.07 c-1.01,0.28,0.74-0.61-0.43-0.36C44.38,47.99,47.19,47.25,48.02,47.96z M209.17,3.21c0.8-0.38-0.42,0.36-1.02,0.36 c0.01,0.14,0.42,0.09,0.69,0.11c-0.02,0.43-1.46,0.37-1.39-0.08C208.53,3.66,208.11,3.16,209.17,3.21z M188.2,5.58 c0.28,0.78-2.43,1.78-3.63,2.53C184.5,7.41,187.2,6.41,188.2,5.58z M86.83,20.04c1.12-0.03,1.43-0.61,3.13-0.12 c-2.29,0.08-0.61,0.38-3.05,0.56c0.05-0.14,0.31-0.21,0.29-0.36C87.23,19.99,87.03,20.02,86.83,20.04z M77.73,22.04 c0.01-0.4,0.62,0.09,1.36-0.25c-0.14,0.59,0.69,0.53,0.56,1.12c-0.27-0.5-2.19-0.3-1.47-0.34C78.97,22.38,78.27,21.87,77.73,22.04z M122.59,14.64c0.69-0.24,1.71-0.21,2.71-0.53C125.6,14.64,122.94,14.73,122.59,14.64z M165.03,10.01c2.01-0.65,5.41-1.07,7.57-0.39 c-1.54,0-2.67-0.01-3.8,0.05C167.68,9.73,166.55,9.82,165.03,10.01z M110.66,18.63c0.08-0.29,0.72-0.47,1.44-0.55 c0.72-0.08,1.52-0.1,1.94-0.1C113.46,18.25,111.77,18.17,110.66,18.63z M42.67,32.39c1.04-0.55,0.02-0.25-0.17-0.73 c0.67-0.01,1.73,0.42,2.04-0.32c2.57,0.63,5.78-0.88,8.9-1.13c-0.05,0.41-1.88,0.59-2.18,1.27c-0.86,0.18-1.35,0.09-1.47-0.28 c-1.61,0.9-4.3,0.11-6.02,1.39C44.84,31.67,43.67,32.43,42.67,32.39z M26.87,37.14c-0.38-0.11-0.96-0.07-1.44-0.1 c0.42-0.43,2.23-0.47,2.14,0.08c-0.39,0.08-0.58,0.18-0.62,0.31C26.45,37.49,26.94,37.29,26.87,37.14z M73.32,26.37 c0.39-0.05,0.22,0.11,0.03,0.15c0.18,0.15,0.49,0.22,1.07,0.1c0.18,0.38-0.38,0.56-1.26,0.7c-0.02-0.14,0.39-0.2,0.64-0.28 C73.45,26.84,72.66,26.83,73.32,26.37z M74.39,26.48c0.53-0.36-0.61-0.49,0.9-0.78c0.2,0.32,1.27,0.62,1.41,0.04 c0.38-0.03,0.29,0.25,0.73,0.17C77.07,26.64,75.96,25.93,74.39,26.48z M302.35,12.06c1.48-0.06,0.55,0.77,1.67,0.84 C303.44,13.21,302.61,12.37,302.35,12.06z M16.96,42.6c-0.73,0.15,0.16-0.87-0.74-0.11c-0.26-0.11-0.83-0.84,0.72-1.28 c-0.29,0.29-1.16,1.03,0.49,0.5C17.58,42.05,17.03,42.28,16.96,42.6z M20.09,41.03c0.02,0.63,1.35,0.23,1.88,0.45 c-0.84,0.47-2.86,0.37-3.8,0.34c-0.41,0.14-0.26,0.38,0.08,0.29C16.68,42.63,18.49,41.24,20.09,41.03z M29.67,38.44 c0.83-0.01,0.84,0.63,1.28,0.91c-0.96,0.4-0.67-0.17-0.81-0.42c-1.19,0.7-1.59,0.5-3.32,0.84c0.22-0.2,0.27-0.42,0.18-0.67 c1.12-0.29,1.53-0.03,2.14,0.08C29.58,38.99,29.69,38.73,29.67,38.44z M299.4,15.66c-0.74-0.44,0.13-1.37,1.44-1.28 c-0.13,0.45-1.32,0.83-0.42,1.33C301.31,16.24,299.57,15.17,299.4,15.66z M296.01,15.18c-0.39-0.19-1.2-0.23-2.04-0.26 c0.18,0.13,0.34,0.26,0.32,0.47c-0.31-0.18-1.26-0.11-1-0.5C294.46,14.83,295.6,14.35,296.01,15.18z M25.03,42.41 c0.85-0.02-0.89,0.68-0.81,0.98c-0.68-0.39-1.61,0.21-2.31,0.59c0.54-0.41-0.09-0.52-1.1-0.19c-0.15-0.35,0.65-0.54,0.84-0.83 c1.21-0.01,0.92,0.06,1.99-0.5C22.77,43.22,24.5,42.99,25.03,42.41z M36.21,43.61c-0.25,0.14-0.5,0.29-0.95,0.4 c0.18-0.85-0.64-0.79-1.2-0.63c-0.19-0.65,1.01-0.19,1.94-0.65c-1.4,1,1.54,0.62,1.74,1.43c-1.09,0.55-1.11,0.16-2.05,0.2 c0.01-0.18,0.57-0.27,0.95-0.39C36.44,43.89,36.25,43.81,36.21,43.61z M16.75,48.42c-1.07-0.2-2.42,0.41-3.39,0.47 C14.15,48.45,15.88,47.8,16.75,48.42z M21.17,47.89c1.21-0.4,0.34-1.15,2.08-1.46c-0.47,0.48-1.07,0.93-1.01,1.5 c-0.03,0.14,0.16,0.11,0.37,0.06C22.61,48.25,21.02,48.32,21.17,47.89z M20.89,49.51c0.5-0.13,1.18,0.12,0.08,0.29 c0.14,0.24,0.65,0.19,1.39-0.04c0.47-0.18-0.18-0.15-0.11-0.44c0.32,0.04,0.78-0.03,1.36-0.19c-0.13,0.54-1.04,0.94-2.48,1.25 C20.72,50.03,20.71,50.01,20.89,49.51z M28.49,47.74c1.95-0.04-1.3,1.99-2.48,1.25c-1.49,1.81,1.4,0.33,4.23,0.17 c-0.58,0.32-1.06,0.66-1.86,0.94c0.15-0.16,0.28-0.32,0.22-0.52c-1.31,0.28-3.11,0.93-3.97,0.85c1.64-1.34-2.54-1.06-0.31-2.56 c1.15,0.25,1.73-0.12,3.4-0.4c-0.55,0.43,0.06,0.37,0.18,0.73c-1.06-0.15-0.74-0.25-2.01,0.35c0.17-0.54-1.14,0.08-1.13-0.33 c-0.35,0.13-0.15,0.35-0.58,0.46c1.08,0.08,2.65-0.22,3.8-0.19C28.55,48.31,28.67,48.05,28.49,47.74z M31.45,46.99 c1.86-0.44,2.62-0.68,3.66-0.77c0.28,0.59-2.81,0.5-1.54,0.85c-0.04,0.44-1.03,0.27-0.73-0.13c-0.57,0.11-0.79,0.47-0.98,0.25 c-0.73,0.25,0.25,0.79-0.81,0.98C30.96,48.08,30.98,47.56,31.45,46.99z M39.51,47.15c-0.13-0.36-0.62-0.46-1.46-0.28 c0.34-0.26,0.25-0.6,0.12-0.95c0.52,0.01,0.59,0.36,0.84,0.58c0.99-0.47,2.01-0.28,1.91-0.75c1.11,0.31-1.81,1.04-1.33,1.69 C39.15,47.5,39.17,47.23,39.51,47.15z M298.35,22.38c0.62-0.32,1.3,0.57,0.95,1.1c0.57,0.09,0.65-0.08,0.69-0.26 c0.48,0.21,0.61,0.55,0.62,0.94c-0.27-0.04-0.33-0.17-0.66-0.19c-0.01,0.15-0.02,0.3-0.03,0.45 C298.46,23.79,299.34,23.02,298.35,22.38z M36.7,47.05c-0.27,0.19-0.7,0.35-1.28,0.48c0.34,0.5,1.33-0.51,1.45,0.25 c-1.08,0.26-1.36-0.1-2.7,0.37c-0.05-0.19-0.1-0.39-0.14-0.58c0.62,0.03,2.96-0.62,1.86-0.94c1-0.14,0.72,0.71,1.85,0.46 C37.91,47.33,36.48,47.43,36.7,47.05z M32.73,47.9c1.61-0.52-0.63,0.96,0.54,0.79C32.31,49.47,32.74,47.87,32.73,47.9z M293.89,23.49c0.06,0.13-0.14,0.13-0.35,0.13c-0.75,0.23-0.11,1.17-0.75,1.46c-1-0.45-0.22-0.92-0.61-1.39 C292.83,23.67,293.05,23.43,293.89,23.49z M29.56,50.57c-0.08,0.41-0.75,0.71-0.76,1.12C27.3,51.84,28.88,50.88,29.56,50.57z M25.12,52.31c0.71,0.18-1.34,1.06-1.33,1.58c-0.58-0.31-1.01,0.26-1.75-0.02C22.07,52.95,24.87,53.27,25.12,52.31z M30.03,51.07 C33.38,50.35,31.51,51.93,30.03,51.07L30.03,51.07z M7.97,57.4c-0.48,0.39-0.64,0.83-1.79,1.12c0.3-0.31,0.25-0.45-0.44-0.34 C6.52,57.72,6.93,58.15,7.97,57.4z M40,49.19c0.65,0.4,1.03,0.49,2.04-0.16c-0.45,0.37,0.58,0.57,0.9,0.87 c-0.87,0.36-1.74,0.23-2.68,0.15c-0.47-0.04-0.96-0.07-1.47-0.03c-0.51,0.05-1.04,0.19-1.6,0.47c0.39-0.52,0.98-0.63,1.63-0.64 c0.66,0,1.37,0.08,2.01-0.08C40.6,49.47,39.28,49.72,40,49.19z M69.7,42.93c1.15-0.09,2.19,0,1.83,0.54 c0.59-0.25,1.16-0.5,1.92-0.71c0.46,0.63,3.24-0.42,2.9,0.78c-1.44,0.03-3.37,0.4-4.43,0.16c-0.23,0.24-1.88,1.32-2.28,0.63 l1.65-0.34c-0.2-0.08-0.39-0.17-0.42-0.37c-0.57,0.09-0.8,0.43-0.99,0.21c-0.17-0.57,0.52-0.06,0.93-0.5 C70.84,42.91,69.51,43.47,69.7,42.93z M28.36,52.73c0.19,0.41-0.49,0.66-0.8,0.98C27.4,53.6,26.61,53.02,28.36,52.73z M61.47,46.33 c0.84-0.6,2.16-0.7,3.59-0.9c0.05,0.24,0.1,0.49,0.15,0.74C64.03,46.18,62.61,46.35,61.47,46.33z M33.67,53.09 c-0.83-0.28,2.17-0.1,1.99-0.35c1.09-0.1-0.21,0.49-0.91,0.54C34.88,52.83,34.01,53.17,33.67,53.09z M30.8,54.13 c0.93-0.72,1.96-0.04,2.76-0.08C32.5,54.87,32.36,53.49,30.8,54.13z M61.36,47.43c0.38-0.05,0.21,0.11,0.03,0.15 c0.11,0.31,1.41-0.23,2.01-0.26c0.03-0.47-1.25,0-1.44-0.31c0.05-0.18,0.64-0.24,0.59-0.43c0.92,0.34,1.25,0.09,3.03-0.32 c-0.02-0.1-0.04-0.2-0.06-0.29c0.42-0.05,0.39,0.22,0.06,0.29c0.04,0.14,0.43,0.03,0.69,0.01c-1.93,0.69-2.11,0.92-2.68,1.94 c-0.59,0.14-0.73-0.04-1.35,0.13c1.69-0.86-1.66,0.14-1.51-0.61C61.12,47.66,61.31,47.56,61.36,47.43z M40.37,52.19 c0.03-0.33,1.07-0.02,1.38-0.01c-0.11,0.46-0.85,0.74-1.71,0.96c-0.86,0.22-1.82,0.42-2.39,0.64c0.17-0.19,0.62-0.73-0.43-0.36 c0.13-0.18,1.27-0.37,2.2-0.58C40.35,52.66,41.08,52.45,40.37,52.19z M158.99,35.67c-0.6,0.04-0.69,0.25-1.31,0.28 c1.48-0.58-1.18-0.63,0.24-0.93c-0.48-0.42-0.7-0.01-1.7-0.14c1.03-0.72,2.72-0.33,4.99-0.64c-0.65-0.44,0.46-0.97-1.11-0.95 c0.31-0.23,0.86-0.39,1.29-0.58c-0.49-0.24-1.75-0.05-2.38-0.22c0.31-0.28,1.4-0.3,1.98-0.49c0.16,0.17,0.46,0.26,1.04,0.2 c0.2,1.12,0.23,2.06-0.37,3.06c-0.21,0.55-1.64-0.28-0.71-0.38c-0.06-0.28-1.11,0-1.04-0.35c-0.7,0.19-0.72,0.9-0.22,1.23 C159.58,35.98,159.09,35.82,158.99,35.67z M43.56,52.54c-0.53,0.04-0.06-0.15,0.29-0.22c0.29,0.04,1.12,0.81-0.12,0.96 C43.22,53,44.55,52.44,43.56,52.54z M20.15,58.55c0.67-0.7-0.55,0.61,0.44,0.35c-0.17,0.21-0.7,0.36-0.53,0.61 c-0.63,0.11-0.69-0.25-1.69,0.16c-0.17-0.23,1.12-0.86,0.97-0.27C20.24,59.22,19.49,58.78,20.15,58.55z M69.14,46.89 c-0.22,0.42-1.8,0.54-1.49,1.08c-1.27,0.12-1.54,0.31-2.33,0.33C66.69,47.85,68.02,47.39,69.14,46.89z M69.23,47.33 c0.24,0.01,2.15-1.17,2.33-0.33C70.5,46.94,70.11,47.44,69.23,47.33z M291.45,31.94c0.62,0.65,1.63-0.12,2.69-0.16 c0.06-0.89-0.3-2,1.78-1.86c0.17,0.32,0.99,0.35,0.3,0.62c-0.36-0.06-0.21-0.31-0.66-0.34c0.22,1.45-2.79,2.05-3.15,2.69 C291.73,33.19,290.52,32.36,291.45,31.94z M48.67,52.28c-1.88-0.28-1.1,0.57-2.62,0.6C45.99,52.53,48.8,51.37,48.67,52.28z M147.8,35.07c1.27,0.1,0.52-0.15,1.65-0.35c-0.25,0.34,0.39,0.89,0.72,0.37C151.51,35.35,147.24,35.81,147.8,35.07z M36.7,55.58 c-0.52,0.52-1.21,0.18-0.76-0.27c0.26,0.2,1.54-0.4,1.7-0.12C39.13,55.09,35.43,55.5,36.7,55.58z M43.44,53.49 c1.25-0.18-0.13,0.54,1.12,0.36c-0.99,0.39-0.14,0.87,0.86,0.73c-0.37,0.38-1.49,0.17-2.25,0.67c0.44,0.1,0.19,0.2,0.1,0.44 c0.57-0.07,0.59-0.25,0.58-0.44c0.44-0.05,0.57,0.14,1.05,0.07c-0.36,0.78-1.42,0.2-2.61,0.6c0.72-0.46,1-1.01,1.72-1.47 C42.91,54.46,43.51,54,43.44,53.49z M60.35,50.71c0.7-0.06,0.75,0.08,0.43,0.37c0.87-0.18,1.86-0.44,2.33-0.33 c-0.23,0.19-0.28,0.41-0.2,0.66c-1.27,0.23-2.07,0.34-2.86,0.44c-0.79,0.09-1.56,0.2-2.77,0.46c0.43-0.45,1.02-0.57,1.7-0.63 c0.68-0.04,1.44-0.02,2.23-0.23C61.25,50.96,60.12,51.33,60.35,50.71z M51.34,54.91c-0.8,0.12-0.65,0.43-1.6,0.52 c-0.17-0.1-0.35-0.2-0.72-0.14c0.48-0.32,1.07-0.91,1.89-0.75c-0.72-0.4-0.13-0.89-0.63-1.24c1.56-0.04,1.01,0.71,1.31,1.24 c0.15,0.18,0.84-0.07,1.34-0.15c-1.14,0.71,0.39,0.49,0.59,1.1c-0.29-0.04-0.94-0.02-0.98,0.23c-0.32,0.07-0.29-0.12-0.39-0.22 c-0.31,0.08-0.21,0.24-0.26,0.37c-0.27,0.09-0.32,0.01-0.36-0.07l-0.07-0.29c0.44-0.1,0.87-0.2,1.3-0.3 C52.66,54.83,51.46,55.28,51.34,54.91z M47.42,54.27c0.54-0.18,0.64-0.03,0.72,0.14c0.8-0.12,0.65-0.43,1.6-0.52 c1.3,0.01-1.7,0.29-0.88,0.66C48.42,54.43,47.46,54.7,47.42,54.27z M37.68,56.73c0.95-0.23,1.06,0.2,1.76,0.17 c-0.04,0.18-0.62,0.26-0.58,0.46C38.45,57.16,38.07,56.94,37.68,56.73z M42.33,56.06c0.62-0.02-0.16,0.2-0.62,0.3 c0.5,0.14,0.95,0.31,1.77,0.21c-0.41,0.41-2.19,0.41-2.09-0.14C41.63,56.29,41.88,56.16,42.33,56.06z M95.97,46.32 c0.36-0.68,2.25-1.5,2.94-0.65c-0.53-0.15-1.37,0.11-1.62,0.42c1.15-0.1,1.24,0.5,2.44,0.36c0.22-0.51-0.79-0.84,0.4-1.59 c0.74,0.33,0.38,1.4,1.29,1.62c1.4-0.4,1.83-0.32,2.94-0.63c0.31,0.41-0.25,0.59-0.18,0.94C102.02,46.26,97.66,47.15,95.97,46.32z M165.79,36.37c0.64,0.16-1.21,0.7-0.23,1.08C163.99,37.54,165.29,36.5,165.79,36.37z M105.4,45.98c0.19-0.19,0.73-0.28,0.58-0.55 c0.64-0.04,0.88,0.18,1.7,0.03c0.53-0.45-0.72-1.07,1.48-1.31c-0.18,0.38-0.17,0.81-0.49,1.15c0.27,0.12,1-0.15,1.7,0.03 c-0.05,0.32-0.84,0.44-1.25,0.66c-1.03,0.3-0.53-0.41-1.39-0.23c-0.6,0.12-0.12,0.54-0.56,0.7c0.02,0.48,1.84-0.24,1.44,0.53 C106.95,47.04,106.67,46.19,105.4,45.98z M39.9,58.8c-0.1,0.49-0.72,0.03-1.29,0.33c0.25,0.1,0.78-0.04,0.75,0.27 c-0.64,0.16-0.5-0.3-1.36,0.04C38.2,59.09,39.32,58.68,39.9,58.8z M69.19,52.1c0.38-0.05,0.21,0.11,0.03,0.15 c0.01,0.27,0.46,0.23,0.45,0.52c-0.61-0.01-1.02-0.16-1.73-0.1C67.63,52.31,69.51,52.45,69.19,52.1z M160.61,38.38 c0.27,0.07,1.21,0.34,1.63-0.46c0.51,0.17-1.05,2.56-1.87,1.39C161.58,39.65,160.84,38.61,160.61,38.38z M114.96,46.71 c-0.45-0.03-0.66-0.22-0.75-0.49c0.4-0.26,1.18-0.39,1.64-0.27c-0.46-0.44-0.69-0.13-0.47-0.84c-1.74,0.66-1.19-0.17-2.39-0.22 c0.04-0.32,1.45-0.27,1.25-0.66c0.14,0.16,1.36,0.67,1.34-0.07c1.02,0.16,0.89,1.06,1.88,1.25 C116.61,46.43,114.89,45.65,114.96,46.71z M42.93,58.54c0.81-0.72,0.66,0.75,1.8,0.36C43.75,59.75,43.58,58.52,42.93,58.54z M47.99,59.69C46.63,59.2,48.4,57.53,47.99,59.69L47.99,59.69z M70.24,53.88c1.22-0.27,1.23,0.34,1.52,0.76 c0.38-0.1,0.22-0.32,0.24-0.51c0.72,1.22-2.14,0.5-3.79,1.4c-0.04-0.26-0.32-0.33-0.75-0.31c0.27-0.3,0.8-0.52,1.28-0.42 c0.02,0.14-0.38,0.2-0.62,0.28C69.54,55.4,69.77,54.25,70.24,53.88z M150.22,41.59c0.79-0.15-0.1,0.7,1.04,0.33 c-0.42,0.49-1.16,0.88-1.17,1.5C149.36,43.13,150.35,42.16,150.22,41.59z M98.34,50.18c1.33-0.49,3.46-0.11,5.63-0.61 c-0.36,0.72,1.23,0.5,0.5,0.99c-1.26-0.31-4.36,0.59-5.07-0.09c0.27-0.07,0.32,0.01,0.35,0.09c0.53,0.12,1.42-0.18,1.97-0.32 C101,49.95,99.01,50.51,98.34,50.18z M108.19,48.58c1.63-0.1,2.32-0.36,4.31-0.4c-0.05,0.37-1.54,0.34-1.22,0.81 c-0.5-0.05-1.29,0.09-1.08-0.43c-0.11,0.64-1.25,0.34-1.22,0.81c0.49,0.1,0.04,0.05-0.33,0.05 C109.17,48.78,108.53,48.99,108.19,48.58z M143.27,45.14c0.22-0.46-0.51-0.33-0.42-0.71c0.59-0.35,0.61,0.02,1.65-0.2 c-0.46,0.58-0.67,1.23-1.12,1.8c-0.49-1.14-3.01,0.78-3.71-0.31C141.22,46.27,141.95,45.03,143.27,45.14z M167.41,43 c0.17-0.14,0.32-0.28,0.29-0.48c0.32-0.03,0.27,0.16,0.36,0.27c0.08,0.27,1.13-0.02,1.35,0.17c-0.27,0.25-0.21,0.61-1.28,0.58 C168.03,43.28,168.39,42.75,167.41,43z M66.81,58.58c0.37-0.47,1.24,0.1,1.42,0.32c0.25-0.13,0.5-0.26,0.94-0.35 c0.15,0.66-1.49,0.36-1.94,0.4C67.21,58.74,67.19,58.53,66.81,58.58z M152.43,46.32c0.62,0.07-0.29,0.86-1.58,0.79 C150.78,46.66,152.48,46.77,152.43,46.32z M195.98,42.6c0.36,0.02,0.24,0.29,0.68,0.27c0,0.15-0.4,0.14-0.65,0.19 c0.07,0.12,0.34,0.13,0.35,0.28c0.75-0.11,1.67-0.39,2.31-0.12c-0.13,0.6-3.05-0.02-3.62,0.35c0.02,0.15,0.41,0.09,0.67,0.11 c-0.13,0.19-0.4,0.33-0.97,0.35c0.05-0.13-0.14-0.14-0.34-0.13C194.5,43.3,196.29,43.36,195.98,42.6z M205.31,43.6 c-0.04,0.18,0.09,0.27,0.35,0.28c-0.08,0.5-1.46-0.32-1.64,0.24C203.33,44.08,204.43,43.52,205.31,43.6z M191.55,3.86 c0.16,0.35-0.61,0.36-0.3,0.77c-1.78,0.04-2.74,0.22-3.64,0.34c-0.9,0.12-1.74,0.21-3.25,0.15c0.49-0.58,1.58-0.83,2.9-0.98 c0.66-0.07,1.38-0.12,2.11-0.16C190.1,3.94,190.84,3.92,191.55,3.86z M170.66,34.53c0.44-0.04,0.89-0.09,1.33-0.13 c-0.43,0.36-0.01,0.53,0.49,0.72c0.5,0.19,1.08,0.4,0.99,0.82c-1.71,0.06-2.16,0.61-3.62,0.79c1.23-0.58,0.9-0.86,1.9-1.39 C171.68,34.9,170.44,35.13,170.66,34.53z M199.72,44.21c1.1-0.06,1.15,0.43,2.33,0.32c-0.32,0.27-1.39,0.24-1.96,0.41 C199.88,44.64,199.12,44.51,199.72,44.21z" fill="url(#a)"/></svg>